<svg xmlns:dc="http://purl.org/dc/elements/1.1/" xmlns:cc="http://creativecommons.org/ns#" xmlns:rdf="http://www.w3.org/1999/02/22-rdf-syntax-ns#" xmlns:svg="http://www.w3.org/2000/svg" xmlns="http://www.w3.org/2000/svg" xmlns:sodipodi="http://sodipodi.sourceforge.net/DTD/sodipodi-0.dtd" xmlns:inkscape="http://www.inkscape.org/namespaces/inkscape" width="735.7054266929626" height="127.77518606185913" version="1.1" inkscape:version="0.91 r13725" sodipodi:docname="EEA-logo-EN-compact-colours.svg"><rect id="backgroundrect" width="100%" height="100%" x="0" y="0" fill="none" stroke="none"/>
  <defs id="defs3403"/>
  <sodipodi:namedview id="base" pagecolor="#ffffff" bordercolor="#666666" borderopacity="1.0" inkscape:pageopacity="0.0" inkscape:pageshadow="2" inkscape:zoom="1.1623335" inkscape:cx="604.68266" inkscape:cy="665.21065" inkscape:document-units="px" inkscape:current-layer="layer1" showgrid="false" inkscape:window-width="1869" inkscape:window-height="620" inkscape:window-x="51" inkscape:window-y="24" inkscape:window-maximized="1"/>
  <metadata id="metadata3406">
    <rdf:RDF>
      <cc:Work rdf:about="">
        <dc:format>image/svg+xml</dc:format>
        <dc:type rdf:resource="http://purl.org/dc/dcmitype/StillImage"/>
        <dc:title/>
      </cc:Work>
    </rdf:RDF>
  </metadata>
  
<g class="currentLayer" style=""><title>Layer 1</title><g inkscape:label="Layer 1" inkscape:groupmode="layer" id="layer1" class="">
    <g inkscape:label="ink_ext_XXXXXX" id="g3501">
      <g id="g3503" stroke-width="0">
        <path inkscape:connector-curvature="0" id="path3505" style="fill: rgb(0, 0, 0); fill-opacity: 1; fill-rule: nonzero; stroke: none;" d="m135.3588104248047,55.5643367767334 l11.845884323120117,0 l0,3.0212414264678955 l-8.663211822509766,0 l0,4.610238075256348 l8.208067893981934,0 l0,3.0205559730529785 l-8.208067893981934,0 l0,5.0884904861450195 l9.11752700805664,0 l0,3.0205559730529785 l-12.300199508666992,0 l0,-18.761083602905273 " stroke-width="0"/>
        <path inkscape:connector-curvature="0" id="path3507" style="fill: rgb(0, 0, 0); fill-opacity: 1; fill-rule: nonzero; stroke: none;" d="m160.94357299804688,74.3254222869873 l-2.8790035247802734,0 l0,-2.0405149459838867 l-0.050310149788856506,0 c-0.5553717017173767,1.2720656394958496 -1.6920545101165771,2.3583598136901855 -3.7125840187072754,2.3583598136901855 c-3.25839900970459,0 -4.4205193519592285,-2.410914897918701 -4.4205193519592285,-5.008286952972412 l0,-8.028843879699707 l3.031240940093994,0 l0,6.4391608238220215 c0,1.403910756111145 0.10123011469841003,3.7362213134765625 2.2221622467041016,3.7362213134765625 c1.9958536624908447,0 2.7786448001861572,-1.5368982553482056 2.7786448001861572,-3.2328333854675293 l0,-6.9425482749938965 l3.030369520187378,0 l0,12.719284057617188 " stroke-width="0"/>
        <path inkscape:connector-curvature="0" id="path3509" style="fill: rgb(0, 0, 0); fill-opacity: 1; fill-rule: nonzero; stroke: none;" d="m164.25643920898438,61.606130599975586 l3.030369520187378,0 l0,2.013780117034912 l0.05009235814213753,0 c0.6577343940734863,-1.4576084613800049 1.9958536624908447,-2.33162522315979 3.5868301391601562,-2.33162522315979 c0.37852394580841064,0 0.7324373126029968,0.0795183777809143 1.0854796171188354,0.18485738337039948 l0,3.0740251541137695 c-0.5044082403182983,-0.13207362592220306 -0.9842059016227722,-0.23832663893699646 -1.4640034437179565,-0.23832663893699646 c-2.854393243789673,0 -3.25839900970459,2.517167806625366 -3.25839900970459,3.206098794937134 l0,6.810474872589111 l-3.030369520187378,0 l0,-12.719284057617188 " stroke-width="0"/>
        <path inkscape:connector-curvature="0" id="path3511" style="fill: rgb(0, 0, 0); fill-opacity: 1; fill-rule: nonzero; stroke: none;" d="m179.4355010986328,61.288286209106445 c3.6624042987823486,0 6.591718673706055,2.675976514816284 6.591718673706055,6.677487373352051 c0,4.001511096954346 -2.9293136596679688,6.677487373352051 -6.591718673706055,6.677487373352051 c-3.6617510318756104,0 -6.592589855194092,-2.675976514816284 -6.592589855194092,-6.677487373352051 c0,-4.001511096954346 2.9308383464813232,-6.677487373352051 6.592589855194092,-6.677487373352051 zm0,10.493227005004883 c2.2230117321014404,0 3.5611305236816406,-1.828008770942688 3.5611305236816406,-3.815739631652832 c0,-1.9877310991287231 -1.3381191492080688,-3.815739631652832 -3.5611305236816406,-3.815739631652832 c-2.2221405506134033,0 -3.5613486766815186,1.828008770942688 -3.5613486766815186,3.815739631652832 c0,1.9877310991287231 1.3392082452774048,3.815739631652832 3.5613486766815186,3.815739631652832 " stroke-width="0"/>
        <path inkscape:connector-curvature="0" id="path3513" style="fill: rgb(0, 0, 0); fill-opacity: 1; fill-rule: nonzero; stroke: none;" d="m188.22540283203125,61.606130599975586 l2.8798747062683105,0 l0,1.907526969909668 l0.05009235814213753,0 c0.8840212225914001,-1.5362129211425781 2.4749979972839355,-2.225372076034546 4.167030334472656,-2.225372076034546 c3.73819637298584,0 5.98603630065918,2.9143028259277344 5.98603630065918,6.677487373352051 c0,3.762270450592041 -2.3992061614990234,6.677487373352051 -5.860152244567871,6.677487373352051 c-2.2722327709198,0 -3.4846856594085693,-1.1130287647247314 -4.115849494934082,-1.9342617988586426 l-0.076663076877594,0 l0,7.658214092254639 l-3.030369520187378,0 l0,-18.761083602905273 zm6.491315841674805,2.543902635574341 c-2.2230117321014404,0 -3.5613486766815186,1.828008770942688 -3.5613486766815186,3.815739631652832 c0,1.9877310991287231 1.3383370637893677,3.815739631652832 3.5613486766815186,3.815739631652832 c2.2221405506134033,0 3.5604777336120605,-1.828008770942688 3.5604777336120605,-3.815739631652832 c0,-1.9877310991287231 -1.3383370637893677,-3.815739631652832 -3.5604777336120605,-3.815739631652832 " stroke-width="0"/>
        <path inkscape:connector-curvature="0" id="path3515" style="fill: rgb(0, 0, 0); fill-opacity: 1; fill-rule: nonzero; stroke: none;" d="m205.9321746826172,69.07880210876465 c0.2016761749982834,1.8817064762115479 1.5654950141906738,3.0205559730529785 3.2575278282165527,3.0205559730529785 c1.515184760093689,0 2.5004796981811523,-0.7417145371437073 3.2575278282165527,-1.7226698398590088 l2.172919273376465,1.7226698398590088 c-1.4147822856903076,1.8289226293563843 -3.207435131072998,2.543902635574341 -5.127496719360352,2.543902635574341 c-3.6626219749450684,0 -6.591718673706055,-2.675976514816284 -6.591718673706055,-6.677487373352051 c0,-4.001511096954346 2.929095983505249,-6.677487373352051 6.591718673706055,-6.677487373352051 c3.3851542472839355,0 5.682868480682373,2.4904332160949707 5.682868480682373,6.91581392288208 l0,0.8747021555900574 l-9.243346214294434,0 zm6.212976455688477,-2.3848659992218018 c-0.02548176236450672,-1.8549718856811523 -1.1876243352890015,-3.021469831466675 -3.0813331604003906,-3.021469831466675 c-1.7933063507080078,0 -2.9053566455841064,1.1925472021102905 -3.131643295288086,3.021469831466675 l6.212976455688477,0 " stroke-width="0"/>
        <path inkscape:connector-curvature="0" id="path3517" style="fill: rgb(0, 0, 0); fill-opacity: 1; fill-rule: nonzero; stroke: none;" d="m225.4586181640625,72.57601737976074 l-0.0755741223692894,0 c-0.8594105243682861,1.4315593242645264 -2.2733218669891357,2.067249298095703 -3.889780044555664,2.067249298095703 c-2.24762225151062,0 -4.420541763305664,-1.2988001108169556 -4.420541763305664,-3.8159682750701904 c0,-4.133356094360352 4.596735954284668,-4.425380706787109 7.627976894378662,-4.425380706787109 l0.7579191327095032,0 l0,-0.34457963705062866 c0,-1.5627189874649048 -1.1621426343917847,-2.3848659992218018 -2.778383255004883,-2.3848659992218018 c-1.262545108795166,0 -2.4246878623962402,0.5301225185394287 -3.232917070388794,1.3255348205566406 l-1.5918480157852173,-1.6692003011703491 c1.3392082452774048,-1.4308737516403198 3.233788251876831,-2.0405149459838867 5.152978897094727,-2.0405149459838867 c5.177806854248047,0 5.177806854248047,3.92130708694458 5.177806854248047,5.723267078399658 l0,7.313862323760986 l-2.727637529373169,0 l0,-1.7494043111801147 zm-0.17684778571128845,-3.9480419158935547 l-0.6313813924789429,0 c-1.666550874710083,0 -4.546425819396973,0.13321614265441895 -4.546425819396973,1.961224913597107 c0,1.1655839681625366 1.1366609334945679,1.6689718961715698 2.121955633163452,1.6689718961715698 c2.070556640625,0 3.055851697921753,-1.1388493776321411 3.055851697921753,-2.9143028259277344 l0,-0.7158938646316528 " stroke-width="0"/>
        <path inkscape:connector-curvature="0" id="path3519" style="fill: rgb(0, 0, 0); fill-opacity: 1; fill-rule: nonzero; stroke: none;" d="m230.8132781982422,61.606130599975586 l2.8790035247802734,0 l0,2.0405149459838867 l0.05009235814213753,0 c0.5555895566940308,-1.2720656394958496 1.6922504901885986,-2.3583598136901855 3.712714672088623,-2.3583598136901855 c3.25839900970459,0 4.420541763305664,2.410914897918701 4.420541763305664,5.008286952972412 l0,8.028843879699707 l-3.031240940093994,0 l0,-6.4391608238220215 c0,-1.4048246145248413 -0.10127367824316025,-3.7362213134765625 -2.2230117321014404,-3.7362213134765625 c-1.99411141872406,0 -2.7777297496795654,1.5368982553482056 -2.7777297496795654,3.2328333854675293 l0,6.9425482749938965 l-3.030369520187378,0 l0,-12.719284057617188 " stroke-width="0"/>
        <path inkscape:connector-curvature="0" id="path3521" style="fill: rgb(0, 0, 0); fill-opacity: 1; fill-rule: nonzero; stroke: none;" d="m252.81471252441406,55.5643367767334 l11.845099449157715,0 l0,3.0212414264678955 l-8.66336441040039,0 l0,4.610238075256348 l8.2090482711792,0 l0,3.0205559730529785 l-8.2090482711792,0 l0,5.0884904861450195 l9.117462158203125,0 l0,3.0205559730529785 l-12.29919719696045,0 l0,-18.761083602905273 " stroke-width="0"/>
        <path inkscape:connector-curvature="0" id="path3523" style="fill: rgb(0, 0, 0); fill-opacity: 1; fill-rule: nonzero; stroke: none;" d="m267.8424377441406,61.606130599975586 l2.8790035247802734,0 l0,2.0405149459838867 l0.05096352472901344,0 c0.5555895566940308,-1.2720656394958496 1.6920325756072998,-2.3583598136901855 3.712714672088623,-2.3583598136901855 c3.2575278282165527,0 4.4196696281433105,2.410914897918701 4.4196696281433105,5.008286952972412 l0,8.028843879699707 l-3.031240940093994,0 l0,-6.4391608238220215 c0,-1.4048246145248413 -0.10040250420570374,-3.7362213134765625 -2.2221405506134033,-3.7362213134765625 c-1.9949824810028076,0 -2.7786011695861816,1.5368982553482056 -2.7786011695861816,3.2328333854675293 l0,6.9425482749938965 l-3.030369520187378,0 l0,-12.719284057617188 " stroke-width="0"/>
        <path inkscape:connector-curvature="0" id="path3525" style="fill: rgb(0, 0, 0); fill-opacity: 1; fill-rule: nonzero; stroke: none;" d="m280.0693054199219,61.606130599975586 l3.308708906173706,0 l3.232917070388794,8.903545379638672 l0.05096352472901344,0 l3.2575278282165527,-8.903545379638672 l3.107032537460327,0 l-4.77358341217041,12.719284057617188 l-3.232917070388794,0 l-4.950649261474609,-12.719284057617188 " stroke-width="0"/>
        <path inkscape:connector-curvature="0" id="path3527" style="fill: rgb(0, 0, 0); fill-opacity: 1; fill-rule: nonzero; stroke: none;" d="m294.742431640625,61.606130599975586 l3.030369520187378,0 l0,12.719284057617188 l-3.030369520187378,0 l0,-12.719284057617188 zm1.489485263824463,-6.227568626403809 c1.1120502948760986,0 1.970371961593628,0.8221469521522522 1.970371961593628,1.908441185951233 c0,1.086294174194336 -0.8583216071128845,1.9072986841201782 -1.970371961593628,1.9072986841201782 c-1.1109613180160522,0 -1.9191906452178955,-0.900522768497467 -1.9191906452178955,-1.9072986841201782 c0,-1.0070043802261353 0.8082292675971985,-1.908441185951233 1.9191906452178955,-1.908441185951233 " stroke-width="0"/>
        <path inkscape:connector-curvature="0" id="path3529" style="fill: rgb(0, 0, 0); fill-opacity: 1; fill-rule: nonzero; stroke: none;" d="m301.1281433105469,61.606130599975586 l3.030369520187378,0 l0,2.013780117034912 l0.05096352472901344,0 c0.6568632125854492,-1.4576084613800049 1.9949824810028076,-2.33162522315979 3.5868301391601562,-2.33162522315979 c0.37852394580841064,0 0.7315661907196045,0.0795183777809143 1.0854796171188354,0.18485738337039948 l0,3.0740251541137695 c-0.5052794218063354,-0.13207362592220306 -0.9850770235061646,-0.23832663893699646 -1.4648746252059937,-0.23832663893699646 c-2.854393243789673,0 -3.25839900970459,2.517167806625366 -3.25839900970459,3.206098794937134 l0,6.810474872589111 l-3.030369520187378,0 l0,-12.719284057617188 " stroke-width="0"/>
        <path inkscape:connector-curvature="0" id="path3531" style="fill: rgb(0, 0, 0); fill-opacity: 1; fill-rule: nonzero; stroke: none;" d="m316.30718994140625,61.288286209106445 c3.6626219749450684,0 6.592589855194092,2.675976514816284 6.592589855194092,6.677487373352051 c0,4.001511096954346 -2.929967164993286,6.677487373352051 -6.592589855194092,6.677487373352051 c-3.6615333557128906,0 -6.591500282287598,-2.675976514816284 -6.591500282287598,-6.677487373352051 c0,-4.001511096954346 2.929967164993286,-6.677487373352051 6.591500282287598,-6.677487373352051 zm0,10.493227005004883 c2.2230117321014404,0 3.5622198581695557,-1.828008770942688 3.5622198581695557,-3.815739631652832 c0,-1.9877310991287231 -1.3392082452774048,-3.815739631652832 -3.5622198581695557,-3.815739631652832 c-2.2221405506134033,0 -3.5611305236816406,1.828008770942688 -3.5611305236816406,3.815739631652832 c0,1.9877310991287231 1.338990330696106,3.815739631652832 3.5611305236816406,3.815739631652832 " stroke-width="0"/>
        <path inkscape:connector-curvature="0" id="path3533" style="fill: rgb(0, 0, 0); fill-opacity: 1; fill-rule: nonzero; stroke: none;" d="m325.0973205566406,61.606130599975586 l2.879657030105591,0 l0,2.0405149459838867 l0.050310149788856506,0 c0.5553717017173767,-1.2720656394958496 1.6920325756072998,-2.3583598136901855 3.712714672088623,-2.3583598136901855 c3.258180856704712,0 4.420323848724365,2.410914897918701 4.420323848724365,5.008286952972412 l0,8.028843879699707 l-3.031240940093994,0 l0,-6.4391608238220215 c0,-1.4048246145248413 -0.10105588287115097,-3.7362213134765625 -2.2230117321014404,-3.7362213134765625 c-1.9949824810028076,0 -2.7777297496795654,1.5368982553482056 -2.7777297496795654,3.2328333854675293 l0,6.9425482749938965 l-3.0310230255126953,0 l0,-12.719284057617188 " stroke-width="0"/>
        <path inkscape:connector-curvature="0" id="path3535" style="fill: rgb(0, 0, 0); fill-opacity: 1; fill-rule: nonzero; stroke: none;" d="m339.3455505371094,61.606130599975586 l2.8798747062683105,0 l0,1.9868168830871582 l0.050310149788856506,0 c0.5298900008201599,-1.1916331052780151 1.6920325756072998,-2.304661989212036 3.712496757507324,-2.304661989212036 c1.86909818649292,0 3.1571249961853027,0.7686776518821716 3.7885067462921143,2.3583598136901855 c0.8840212225914001,-1.616645097732544 2.1720480918884277,-2.3583598136901855 3.989093542098999,-2.3583598136901855 c3.2342240810394287,0 4.371102333068848,2.410914897918701 4.371102333068848,5.458205223083496 l0,7.578924179077148 l-3.0316765308380127,0 l0,-7.207609176635742 c0,-1.5896819829940796 -0.45300909876823425,-2.9677722454071045 -2.2471864223480225,-2.9677722454071045 c-1.8945801258087158,0 -2.6015355587005615,1.6431514024734497 -2.6015355587005615,3.2856171131134033 l0,6.889764785766602 l-3.031240940093994,0 l0,-7.578924179077148 c0,-1.5629475116729736 -0.6056818962097168,-2.5964579582214355 -2.070774555206299,-2.5964579582214355 c-1.9949824810028076,0 -2.7786011695861816,1.5368982553482056 -2.7786011695861816,3.2328333854675293 l0,6.9425482749938965 l-3.030369520187378,0 l0,-12.719284057617188 " stroke-width="0"/>
        <path inkscape:connector-curvature="0" id="path3537" style="fill: rgb(0, 0, 0); fill-opacity: 1; fill-rule: nonzero; stroke: none;" d="m363.23980712890625,69.07880210876465 c0.2025473564863205,1.8817064762115479 1.5681084394454956,3.0205559730529785 3.260359048843384,3.0205559730529785 c1.5158382654190063,0 2.5002617835998535,-0.7417145371437073 3.258180856704712,-1.7226698398590088 l2.1713948249816895,1.7226698398590088 c-1.4134756326675415,1.8289226293563843 -3.2080886363983154,2.543902635574341 -5.1268439292907715,2.543902635574341 c-3.663275718688965,0 -6.592589855194092,-2.675976514816284 -6.592589855194092,-6.677487373352051 c0,-4.001511096954346 2.9293136596679688,-6.677487373352051 6.592589855194092,-6.677487373352051 c3.3845009803771973,0 5.682215690612793,2.4904332160949707 5.682215690612793,6.91581392288208 l0,0.8747021555900574 l-9.245306015014648,0 zm6.213630199432373,-2.3848659992218018 c-0.023957213386893272,-1.8549718856811523 -1.1869709491729736,-3.021469831466675 -3.0795907974243164,-3.021469831466675 c-1.794613003730774,0 -2.9053566455841064,1.1925472021102905 -3.1340389251708984,3.021469831466675 l6.213630199432373,0 " stroke-width="0"/>
        <path inkscape:connector-curvature="0" id="path3539" style="fill: rgb(0, 0, 0); fill-opacity: 1; fill-rule: nonzero; stroke: none;" d="m375.1922912597656,61.606130599975586 l2.8770434856414795,0 l0,2.0405149459838867 l0.05009235814213753,0 c0.5575497150421143,-1.2720656394958496 1.6922504901885986,-2.3583598136901855 3.715545892715454,-2.3583598136901855 c3.2560031414031982,0 4.419017314910889,2.410914897918701 4.419017314910889,5.008286952972412 l0,8.028843879699707 l-3.0316765308380127,0 l0,-6.4391608238220215 c0,-1.4048246145248413 -0.10018471628427505,-3.7362213134765625 -2.221486806869507,-3.7362213134765625 c-1.9971604347229004,0 -2.7790367603302,1.5368982553482056 -2.7790367603302,3.2328333854675293 l0,6.9425482749938965 l-3.029498338699341,0 l0,-12.719284057617188 " stroke-width="0"/>
        <path inkscape:connector-curvature="0" id="path3541" style="fill: rgb(0, 0, 0); fill-opacity: 1; fill-rule: nonzero; stroke: none;" d="m388.1509704589844,64.3088436126709 l0,-2.7027108669281006 l2.5002617835998535,0 l0,-3.6836659908294678 l3.0316765308380127,0 l0,3.6836659908294678 l3.334408760070801,0 l0,2.7027108669281006 l-3.334408760070801,0 l0,5.56445837020874 c0,1.2718371152877808 0.3528244197368622,2.067249298095703 1.6922504901885986,2.067249298095703 c0.5292366743087769,0 1.261020541191101,-0.1062530130147934 1.6421581506729126,-0.3973633646965027 l0,2.675976514816284 c-0.6315993070602417,0.3178449869155884 -1.6944283246994019,0.4240979850292206 -2.4000771045684814,0.4240979850292206 c-3.2080886363983154,0 -3.966007709503174,-1.510392189025879 -3.966007709503174,-4.504899024963379 l0,-5.829519271850586 l-2.5002617835998535,0 " stroke-width="0"/>
        <path inkscape:connector-curvature="0" id="path3543" style="fill: rgb(0, 0, 0); fill-opacity: 1; fill-rule: nonzero; stroke: none;" d="m412.6744384765625,55.5643367767334 l2.7550792694091797,0 l7.703332901000977,18.761083602905273 l-3.6393182277679443,0 l-1.6661152839660645,-4.293306827545166 l-7.753425121307373,0 l-1.6160229444503784,4.293306827545166 l-3.5609130859375,0 l7.7773823738098145,-18.761083602905273 zm4.042235374450684,11.606256484985352 l-2.752901792526245,-7.631707668304443 l-2.8051717281341553,7.631707668304443 l5.5580735206604,0 " stroke-width="0"/>
        <path inkscape:connector-curvature="0" id="path3545" style="fill: rgb(0, 0, 0); fill-opacity: 1; fill-rule: nonzero; stroke: none;" d="m436.69696044921875,61.606130599975586 l0,11.579520225524902 c0,4.584188938140869 -2.1213021278381348,7.499405384063721 -6.843051433563232,7.499405384063721 c-2.249800205230713,0 -4.294875144958496,-0.5033878684043884 -6.013260841369629,-2.0930700302124023 l1.820747971534729,-2.597371816635132 c1.210928201675415,1.1655839681625366 2.4741265773773193,1.8289226293563843 4.166377067565918,1.8289226293563843 c2.9293136596679688,0 3.837510347366333,-1.7496328353881836 3.837510347366333,-4.26657247543335 l0,-0.9274859428405762 l-0.05009235814213753,0 c-0.8842389583587646,1.2451024055480957 -2.450169563293457,1.854743242263794 -3.96382999420166,1.854743242263794 c-3.637140989303589,0 -6.037217140197754,-2.9149885177612305 -6.037217140197754,-6.518450736999512 c0,-3.7631845474243164 2.24762225151062,-6.677487373352051 5.987125396728516,-6.677487373352051 c1.6922504901885986,0 3.2821381092071533,0.6891592741012573 4.166377067565918,2.225372076034546 l0.05009235814213753,0 l0,-1.907526969909668 l2.8792214393615723,0 zm-10.051140785217285,6.332907676696777 c0,2.014465570449829 1.5136603116989136,3.6836659908294678 3.5609130859375,3.6836659908294678 c2.24762225151062,0 3.6110050678253174,-1.6164166927337646 3.6110050678253174,-3.7364494800567627 c0,-2.1993229389190674 -1.3895183801651,-3.7362213134765625 -3.587048292160034,-3.7362213134765625 c-2.1213021278381348,0 -3.5848701000213623,1.5368982553482056 -3.5848701000213623,3.7890052795410156 " stroke-width="0"/>
        <path inkscape:connector-curvature="0" id="path3547" style="fill: rgb(0, 0, 0); fill-opacity: 1; fill-rule: nonzero; stroke: none;" d="m441.9261779785156,69.07880210876465 c0.2025473564863205,1.8817064762115479 1.5659306049346924,3.0205559730529785 3.258180856704712,3.0205559730529785 c1.5158382654190063,0 2.5002617835998535,-0.7417145371437073 3.258180856704712,-1.7226698398590088 l2.1713948249816895,1.7226698398590088 c-1.4134756326675415,1.8289226293563843 -3.2059109210968018,2.543902635574341 -5.1268439292907715,2.543902635574341 c-3.661097526550293,0 -6.59041166305542,-2.675976514816284 -6.59041166305542,-6.677487373352051 c0,-4.001511096954346 2.9293136596679688,-6.677487373352051 6.59041166305542,-6.677487373352051 c3.3845009803771973,0 5.682215690612793,2.4904332160949707 5.682215690612793,6.91581392288208 l0,0.8747021555900574 l-9.243127822875977,0 zm6.213630199432373,-2.3848659992218018 c-0.026135141029953957,-1.8549718856811523 -1.1869709491729736,-3.021469831466675 -3.081768751144409,-3.021469831466675 c-1.7924350500106812,0 -2.9031786918640137,1.1925472021102905 -3.1318612098693848,3.021469831466675 l6.213630199432373,0 " stroke-width="0"/>
        <path inkscape:connector-curvature="0" id="path3549" style="fill: rgb(0, 0, 0); fill-opacity: 1; fill-rule: nonzero; stroke: none;" d="m453.3712158203125,61.606130599975586 l2.8792214393615723,0 l0,2.0405149459838867 l0.05009235814213753,0 c0.5553717017173767,-1.2720656394958496 1.6922504901885986,-2.3583598136901855 3.7133677005767822,-2.3583598136901855 c3.258180856704712,0 4.419017314910889,2.410914897918701 4.419017314910889,5.008286952972412 l0,8.028843879699707 l-3.029498338699341,0 l0,-6.4391608238220215 c0,-1.4048246145248413 -0.10236263275146484,-3.7362213134765625 -2.2236649990081787,-3.7362213134765625 c-1.9949824810028076,0 -2.7790367603302,1.5368982553482056 -2.7790367603302,3.2328333854675293 l0,6.9425482749938965 l-3.029498338699341,0 l0,-12.719284057617188 " stroke-width="0"/>
        <path inkscape:connector-curvature="0" id="path3551" style="fill: rgb(0, 0, 0); fill-opacity: 1; fill-rule: nonzero; stroke: none;" d="m475.01983642578125,65.42187690734863 c-0.7078267931938171,-0.7684491276741028 -1.4918808937072754,-1.2718371152877808 -2.2998926639556885,-1.2718371152877808 c-2.221486806869507,0 -3.5609130859375,1.828008770942688 -3.5609130859375,3.815739631652832 c0,1.9877310991287231 1.339426040649414,3.815739631652832 3.5609130859375,3.815739631652832 c0.9343312978744507,0 1.794613003730774,-0.4238695204257965 2.349984884262085,-1.1923187971115112 l2.021117687225342,2.2786128520965576 c-1.2370632886886597,1.2988001108169556 -3.3082733154296875,1.7754534482955933 -4.371102333068848,1.7754534482955933 c-3.661097526550293,0 -6.59041166305542,-2.675976514816284 -6.59041166305542,-6.677487373352051 c0,-4.001511096954346 2.9293136596679688,-6.677487373352051 6.59041166305542,-6.677487373352051 c1.541973352432251,0 3.2342240810394287,0.5829063057899475 4.395059585571289,1.9342617988586426 l-2.0951671600341797,2.1993229389190674 " stroke-width="0"/>
        <path inkscape:connector-curvature="0" id="path3553" style="fill: rgb(0, 0, 0); fill-opacity: 1; fill-rule: nonzero; stroke: none;" d="m478.1538391113281,61.606130599975586 l3.332230567932129,0 l3.3845009803771973,8.824026107788086 l0.05009235814213753,0 l3.0316765308380127,-8.824026107788086 l3.15799617767334,0 l-5.734485626220703,15.44873046875 c-0.8842389583587646,2.385094404220581 -1.944890022277832,3.6301968097686768 -4.621563911437988,3.6301968097686768 c-0.7840542197227478,0 -1.5659306049346924,-0.1062530130147934 -2.323849678039551,-0.3178449869155884 l0.3789595663547516,-2.8624331951141357 c0.47914427518844604,0.1857713758945465 1.010558843612671,0.318759024143219 1.541973352432251,0.318759024143219 c1.4897030591964722,0 1.8926198482513428,-0.5570856928825378 2.3978993892669678,-1.8817064762115479 l0.5815069079399109,-1.51016366481781 l-5.176936149597168,-12.82553768157959 " stroke-width="0"/>
        <path inkscape:connector-curvature="0" id="path3555" style="fill: rgb(18, 90, 158); fill-opacity: 1; fill-rule: nonzero; stroke: none;" d="m576.134521484375,64.70163917541504 c0,-6.0758442878723145 -2.2541558742523193,-11.787456512451172 -6.348661422729492,-16.083505630493164 c-0.8058335781097412,-0.8443115949630737 -1.6639373302459717,-1.611161231994629 -2.5655996799468994,-2.3037478923797607 l-3.397568464279175,5.9757609367370605 c3.55220103263855,2.971428155899048 6.0894880294799805,7.275474548339844 6.0894880294799805,12.411494255065918 c0,8.95518684387207 -6.921456336975098,16.216493606567383 -15.456759452819824,16.216493606567383 c-1.9971604347229004,0 -3.9028477668762207,-0.40536096692085266 -5.65608024597168,-1.129252314567566 l-3.1405727863311768,5.707271575927734 c2.73330020904541,1.2745791673660278 5.714884281158447,1.9502567052841187 8.796652793884277,1.9502567052841187 c11.954648971557617,0 21.679100036621094,-10.203030586242676 21.679100036621094,-22.74477195739746 " stroke-width="0"/>
        <path inkscape:connector-curvature="0" id="path3557" style="fill: rgb(0, 147, 145); fill-opacity: 1; fill-rule: nonzero; stroke: none;" d="m570.6200561523438,23.52505397796631 c-0.026135141029953957,-2.0816447734832764 -0.21343699097633362,-4.0657196044921875 -0.5575497150421143,-5.898298740386963 l-0.11760814487934113,-0.6194664239883423 l-0.4464753568172455,0.42318403720855713 c-1.34378182888031,1.2709228992462158 -2.6483609676361084,2.7580082416534424 -3.8788907527923584,4.4201250076293945 c-6.405287265777588,8.652650833129883 -9.667823791503906,20.23125648498535 -7.755603790283203,27.52981185913086 l0.05662613734602928,0.21342001855373383 l0.2047252655029297,0.043643709272146225 c0.41162845492362976,0.08477390557527542 0.7840542197227478,0.18394337594509125 1.1412345170974731,0.30253544449806213 c0.42251816391944885,0.14029967784881592 0.8385024070739746,0.30893346667289734 1.2414191961288452,0.5033878684043884 l0.1894797831773758,0.09117193520069122 l0.1633446365594864,-0.13390164077281952 c5.791111469268799,-4.732485771179199 9.896506309509277,-16.035293579101562 9.759298324584961,-26.875612258911133 " stroke-width="0"/>
        <path inkscape:connector-curvature="0" id="path3559" style="fill: rgb(0, 147, 145); fill-opacity: 1; fill-rule: nonzero; stroke: none;" d="m548.55322265625,15.30518627166748 l-0.3658919930458069,-0.5024738907814026 l-0.22214870154857635,0.5872477889060974 c-0.6686240434646606,1.7628860473632812 -1.2131062746047974,3.701488971710205 -1.6160229444503784,5.763483047485352 c-2.0995230674743652,10.732468605041504 -0.14374329149723053,22.63051986694336 4.64552116394043,28.290264129638672 l0.13938742876052856,0.16612029075622559 l0.2047252655029297,-0.05803927406668663 c0.405094712972641,-0.11333653330802917 0.779698371887207,-0.1981104463338852 1.1499463319778442,-0.25706371665000916 c0.43776363134384155,-0.07037833333015442 0.8842389583587646,-0.11150853335857391 1.3241804838180542,-0.12407609075307846 l0.20908112823963165,-0.005255525000393391 l0.08929506689310074,-0.1965109407901764 c3.201555013656616,-6.931809425354004 2.1213021278381348,-18.973588943481445 -2.569955587387085,-28.633014678955078 c-0.9016623497009277,-1.854743242263794 -1.9056874513626099,-3.547250747680664 -2.9881181716918945,-5.030680179595947 " stroke-width="0"/>
        <path inkscape:connector-curvature="0" id="path3561" style="fill: rgb(0, 147, 145); fill-opacity: 1; fill-rule: nonzero; stroke: none;" d="m533.081298828125,26.325105667114258 c-1.5898877382278442,-1.245330810546875 -3.20373272895813,-2.2975785732269287 -4.800154209136963,-3.1258950233459473 l-0.5379483699798584,-0.280370831489563 l0.047914426773786545,0.6292919516563416 c0.14156535267829895,1.891532063484192 0.4726105034351349,3.8829190731048584 0.9800677299499512,5.918863296508789 c2.6396493911743164,10.600165367126465 9.406473159790039,20.36515998840332 16.08835792541504,23.219593048095703 l0.19601355493068695,0.08385990560054779 l0.15681086480617523,-0.14646919071674347 c0.31579965353012085,-0.2899678945541382 0.6163537502288818,-0.539948046207428 0.9234416484832764,-0.7647930979728699 c0.3637140691280365,-0.2659752666950226 0.7448515295982361,-0.5097859501838684 1.1368786096572876,-0.7257194519042969 l0.18294599652290344,-0.10076898336410522 l-0.002177928574383259,-0.21867553889751434 c-0.047914426773786545,-7.702085971832275 -6.093843460083008,-18.000858306884766 -14.372149467468262,-24.48891830444336 " stroke-width="0"/>
        <path inkscape:connector-curvature="0" id="path3563" style="fill: rgb(0, 147, 145); fill-opacity: 1; fill-rule: nonzero; stroke: none;" d="m516.5050048828125,45.07819366455078 c6.834339141845703,8.28225040435791 17.018333435058594,13.902007102966309 24.214208602905273,13.362743377685547 l0.21125908195972443,-0.015995075926184654 l0.0805833637714386,-0.20427997410297394 c0.15898878872394562,-0.40718892216682434 0.3245113492012024,-0.7711911797523499 0.5052794218063354,-1.1148568391799927 c0.21343699097633362,-0.40718892216682434 0.45300909876823425,-0.8034098148345947 0.7121826410293579,-1.1774661540985107 l0.12414192408323288,-0.17663134634494781 l-0.0936509221792221,-0.19468292593955994 c-3.2908499240875244,-6.885194778442383 -13.052325248718262,-13.318185806274414 -23.21236228942871,-15.297005653381348 c-1.9514238834381104,-0.3802258372306824 -3.841865301132202,-0.5739947557449341 -5.623411178588867,-0.5774222612380981 l-0.6011082530021667,-0.00182800879701972 l0.3092658221721649,0.542690098285675 c0.9234416484832764,1.630812406539917 2.0581421852111816,3.2641382217407227 3.3736112117767334,4.854733943939209 " stroke-width="0"/>
        <path inkscape:connector-curvature="0" id="path3565" style="fill: rgb(0, 147, 145); fill-opacity: 1; fill-rule: nonzero; stroke: none;" d="m539.429931640625,65.52103996276855 l0.18076807260513306,-0.11242253333330154 l-0.013067570514976978,-0.2205035388469696 c-0.026135141029953957,-0.4382651150226593 -0.03266892582178116,-0.8417980074882507 -0.015245499089360237,-1.2345914840698242 c0.019601358100771904,-0.46317169070243835 0.0675157830119133,-0.9299994707107544 0.14374329149723053,-1.387001633644104 l0.03484685719013214,-0.2141055315732956 l-0.16552256047725677,-0.13207362592220306 c-5.85427188873291,-4.647712230682373 -17.32106590270996,-5.889387130737305 -27.267663955688477,-2.9517769813537598 c-1.9078654050827026,0.563940703868866 -3.6872329711914062,1.266581654548645 -5.285832405090332,2.08941388130188 l-0.5401262640953064,0.2776288390159607 l0.5052794218063354,0.34457963705062866 c1.5158382654190063,1.0325963497161865 3.223334312438965,1.9708219766616821 5.070217132568359,2.7893126010894775 c9.622087478637695,4.257660865783691 21.12590789794922,4.57344913482666 27.352603912353516,0.7515400648117065 " stroke-width="0"/>
        <path inkscape:connector-curvature="0" id="path3567" style="fill: rgb(0, 147, 145); fill-opacity: 1; fill-rule: nonzero; stroke: none;" d="m541.1177978515625,72.61165809631348 l0.11543020606040955,-0.18485738337039948 l-0.10454056411981583,-0.1917124092578888 c-0.20908112823963165,-0.3802258372306824 -0.38331541419029236,-0.7401150465011597 -0.5357704162597656,-1.099775791168213 c-0.1764122098684311,-0.42478352785110474 -0.32886719703674316,-0.8657906651496887 -0.45518699288368225,-1.310225248336792 l-0.05880407243967056,-0.20884999632835388 l-0.2025473564863205,-0.042044200003147125 c-7.2089433670043945,-1.4530385732650757 -18.018001556396484,2.7527525424957275 -25.699556350708008,10.000577926635742 c-1.4766355752944946,1.3922570943832397 -2.7746808528900146,2.848266124725342 -3.8614673614501953,4.326211452484131 l-0.36806991696357727,0.5008743405342102 l0.5989303588867188,0.07403434813022614 c1.794613003730774,0.2232455611228943 3.7220797538757324,0.27305880188941956 5.723596096038818,0.1489827185869217 c10.423565864562988,-0.6443729996681213 20.87326431274414,-5.696303367614746 24.847986221313477,-12.013216018676758 " stroke-width="0"/>
        <path inkscape:connector-curvature="0" id="path3569" style="fill: rgb(0, 147, 145); fill-opacity: 1; fill-rule: nonzero; stroke: none;" d="m544.5872192382812,76.98631477355957 c-0.3375788927078247,-0.2991079092025757 -0.6599123477935791,-0.6231224536895752 -0.9604663252830505,-0.964046061038971 l-0.13938742876052856,-0.16063626110553741 l-0.2025473564863205,0.05803927406668663 c-7.078267574310303,2.0402863025665283 -14.999394416809082,10.826152801513672 -18.834726333618164,20.891695022583008 c-0.7361398339271545,1.932456612586975 -1.2871557474136353,3.8398923873901367 -1.6378021240234375,5.6714887619018555 l-0.11978606879711151,0.6194435954093933 l0.5662614107131958,-0.21154631674289703 c1.7053178548812866,-0.6328337788581848 3.4541947841644287,-1.4816923141479492 5.196537494659424,-2.5215322971343994 c9.077605247497559,-5.413533687591553 16.32357406616211,-14.792863845825195 17.225234985351562,-22.302093505859375 l0.026135141029953957,-0.21958956122398376 l-0.1764122098684311,-0.12316209077835083 c-0.348468542098999,-0.24358214437961578 -0.6555564999580383,-0.48556479811668396 -0.943043053150177,-0.7380585074424744 " stroke-width="0"/>
        <path inkscape:connector-curvature="0" id="path3571" style="fill: rgb(18, 90, 158); fill-opacity: 1; fill-rule: nonzero; stroke: none;" d="m595.5225219726562,71.53519248962402 c1.6356244087219238,-0.4410070776939392 3.29520583152771,-0.981869101524353 4.64552116394043,-1.5915101766586304 c0.17859013378620148,-1.7226698398590088 0.16552256047725677,-6.145307540893555 0.15245498716831207,-6.641612529754639 c-1.3045790195465088,-0.663110077381134 -2.8138835430145264,-1.363008975982666 -4.38852596282959,-1.8833057880401611 c-2.890111207962036,-0.9569626450538635 -7.045598030090332,-1.3881441354751587 -9.916108131408691,-1.6219006776809692 c-0.3615361452102661,-2.3725268840789795 -0.11760814487934113,-1.1121149063110352 -0.7513853311538696,-3.514117956161499 c2.5568881034851074,-1.4806870222091675 6.1983842849731445,-3.6836659908294678 8.454717636108398,-5.844600677490234 c1.2523088455200195,-1.1996307373046875 2.3369171619415283,-2.4152565002441406 3.258180856704712,-3.622884750366211 c-0.8036556243896484,-2.094212532043457 -1.7358088493347168,-4.118503570556641 -2.798638105392456,-6.05527925491333 c-1.4526783227920532,0.05529726296663284 -2.9946515560150146,0.22667306661605835 -4.62374210357666,0.5433756113052368 c-2.981583833694458,0.5785647630691528 -6.8408732414245605,2.2466228008270264 -9.480522155761719,3.4553933143615723 c-1.3829845190048218,-1.9164385795593262 -0.6032862067222595,-0.9247438907623291 -2.2345547676086426,-2.734015464782715 c1.5942437648773193,-2.566295862197876 3.8222641944885254,-6.307087421417236 4.848069190979004,-9.325814247131348 c0.5662614107131958,-1.6689718961715698 0.9038403630256653,-3.1231529712677 1.1760812997817993,-4.638800621032715 c-1.339426040649414,-1.1815791130065918 -2.7463676929473877,-2.281355142593384 -4.209935665130615,-3.298870086669922 l-9.909575462341309,17.99080467224121 c1.0671850442886353,0.8194049000740051 2.0864555835723877,1.7217556238174438 3.038210391998291,2.720762252807617 c4.8959832191467285,5.135790824890137 7.592258453369141,11.96500301361084 7.592258453369141,19.2279109954834 c0,7.262907028198242 -2.696275472640991,14.091204643249512 -7.592258453369141,19.227224349975586 c-4.8959832191467285,5.135790824890137 -11.403633117675781,7.964405059814453 -18.325090408325195,7.964405059814453 c-3.669809579849243,0 -7.2198333740234375,-0.8069058656692505 -10.478014945983887,-2.318828821182251 l-9.974912643432617,18.130029678344727 c1.524549961090088,0.7997538447380066 3.0970141887664795,1.5147109031677246 4.7108588218688965,2.1359596252441406 c0.993135392665863,-0.9640004634857178 1.9840928316116333,-2.0618796348571777 2.9532711505889893,-3.2972021102905273 c1.9296445846557617,-2.4537134170532227 3.8701789379119873,-6.34090518951416 5.150800704956055,-9.046335220336914 c2.23237681388855,0.536452054977417 1.0279821157455444,0.3016899526119232 3.3888566493988037,0.5864251852035522 c0.348468542098999,3.0419206619262695 0.9277976155281067,7.415592193603516 1.9928045272827148,10.420015335083008 c0.5531938076019287,1.5584460496902466 1.1760812997817993,3.188305377960205 1.84470534324646,4.469161510467529 c0.13720948994159698,0.0008925824076868594 4.5932512283325195,-0.15263164043426514 6.62743616104126,-0.44272086024284363 c0.45736491680145264,-1.3620812892913818 0.8515700101852417,-3.0562021732330322 1.160835862159729,-4.655709266662598 c0.6054641008377075,-3.116892099380493 0.5815069079399109,-7.503039360046387 0.5009235739707947,-10.52354907989502 c2.212775230407715,-0.6257045865058899 1.0432277917861938,-0.23921778798103333 3.2538249492645264,-1.1505258083343506 c1.67047119140625,2.513511896133423 4.138064384460449,6.089188098907471 6.42271089553833,8.2171049118042 c1.210928201675415,1.1282241344451904 2.5568881034851074,2.166304588317871 3.746037244796753,2.978534460067749 c1.9492459297180176,-1.0675114393234253 3.817908763885498,-2.2734029293060303 5.588564395904541,-3.613173246383667 c-0.2047252655029297,-1.4575856924057007 -0.6599123477935791,-3.063331365585327 -1.1107434034347534,-4.665512561798096 c-0.860281765460968,-3.04996395111084 -2.844374656677246,-6.909484386444092 -4.266561985015869,-9.537247657775879 c1.6726490259170532,-1.6415517330169678 0.814545214176178,-0.724805474281311 2.358696460723877,-2.617936849594116 c2.6004464626312256,1.3959132432937622 6.376975059509277,3.336458683013916 9.345491409301758,4.089803695678711 c1.613844871520996,0.4088113009929657 3.2821381092071533,0.7345852851867676 4.723927021026611,0.8631170988082886 c1.2196398973464966,-1.8654143810272217 2.3173160552978516,-3.823896884918213 3.2799601554870605,-5.866011142730713 c-0.8450363278388977,-1.212198257446289 -1.9732033014297485,-2.508256435394287 -3.1144378185272217,-3.7275381088256836 c-2.1234803199768066,-2.268787384033203 -5.599453449249268,-4.698439121246338 -8.03219985961914,-6.318512439727783 c0.7426736950874329,-2.273357391357422 0.3942050337791443,-1.039908528327942 0.9103739857673645,-3.4729881286621094 c2.9206020832061768,-0.04729972407221794 7.121826171875,-0.1965109407901764 10.081631660461426,-0.9935227632522583 " stroke-width="0"/>
      </g>
    </g>
  </g></g></svg>