<?xml version="1.0" standalone="no"?>
<!DOCTYPE svg PUBLIC "-//W3C//DTD SVG 20010904//EN"
 "http://www.w3.org/TR/2001/REC-SVG-20010904/DTD/svg10.dtd">
<svg version="1.0" xmlns="http://www.w3.org/2000/svg"
 width="1000.000000pt" height="1000.000000pt" viewBox="0 0 1000.000000 1000.000000"
 preserveAspectRatio="xMidYMid meet">

<g transform="translate(0.000000,1000.000000) scale(0.100000,-0.100000)"
fill="#000000" stroke="none">
<path d="M2795 8990 c-88 -55 -164 -101 -170 -103 -5 -2 15 -32 45 -67 75 -86
260 -332 260 -346 0 -6 -26 -14 -57 -18 -224 -25 -553 -239 -664 -430 -16 -28
-36 -76 -45 -106 -9 -30 -29 -81 -44 -113 -90 -183 -53 -334 130 -518 107
-108 227 -191 373 -259 53 -25 96 -49 97 -53 0 -4 -29 -42 -63 -85 -252 -306
-473 -747 -561 -1115 -66 -276 -86 -426 -93 -687 -7 -248 9 -427 58 -674 112
-558 384 -1071 794 -1495 519 -537 1231 -865 1974 -912 437 -27 893 44 1281
198 965 383 1658 1214 1855 2225 199 1023 -162 2099 -940 2800 -378 342 -802
571 -1270 688 -364 92 -704 120 -1035 85 -142 -14 -325 -45 -423 -70 l-29 -8
8 114 c30 413 -30 737 -164 889 -108 123 -378 193 -562 145 -165 -42 -332
-168 -456 -342 l-31 -44 -11 28 c-21 50 -42 146 -53 238 -7 49 -16 95 -21 102
-5 7 -7 17 -3 23 16 26 -32 2 -180 -90z m2052 -1152 c-4 -24 -9 -64 -13 -90
l-6 -46 -114 -59 c-63 -32 -114 -61 -114 -64 0 -3 53 -31 119 -62 l118 -55 7
-44 c4 -24 14 -83 23 -132 l16 -90 92 99 92 99 127 -18 c70 -10 129 -16 132
-14 2 3 -23 53 -56 113 -33 59 -60 112 -60 117 0 5 25 62 55 125 30 64 55 117
55 118 0 2 -58 -9 -129 -24 l-128 -27 -52 48 -52 48 113 0 c209 0 500 -44 732
-111 256 -73 711 -286 689 -322 -3 -6 -1 -7 5 -3 7 4 33 -8 59 -25 l47 -33
-33 -9 c-18 -4 -31 -10 -29 -12 2 -3 20 0 39 5 18 6 37 10 40 10 12 0 200
-147 296 -233 186 -164 473 -510 473 -569 0 -26 -10 -33 -121 -89 -67 -33
-119 -63 -116 -66 3 -3 54 -27 112 -54 59 -26 113 -53 120 -59 7 -6 20 -63 30
-128 9 -64 21 -121 25 -125 4 -5 40 28 80 72 40 45 76 81 80 81 17 0 117 -269
174 -470 24 -86 65 -322 73 -418 l6 -87 -91 84 c-51 46 -92 88 -92 92 0 5 -7
9 -15 9 -10 0 -15 -10 -15 -27 0 -16 -5 -74 -12 -131 l-12 -102 -118 -62 c-64
-35 -114 -65 -110 -69 4 -3 54 -28 112 -54 58 -26 110 -54 116 -61 6 -7 19
-67 29 -133 10 -67 22 -121 25 -121 4 0 47 43 95 95 48 53 90 94 92 91 13 -12
-58 -487 -77 -511 -4 -5 -10 -30 -14 -54 -10 -65 -81 -270 -146 -417 -100
-230 -230 -442 -393 -644 -77 -95 -182 -206 -162 -171 5 10 4 12 -4 7 -6 -4
-9 -11 -6 -15 7 -13 -189 -198 -305 -287 -135 -105 -385 -264 -413 -264 -4 0
-13 13 -22 30 -15 29 -14 32 45 150 35 70 55 120 48 120 -7 -1 -67 -12 -133
-25 l-120 -23 -92 91 c-51 50 -95 88 -99 84 -3 -3 -13 -63 -22 -132 l-16 -127
-119 -60 c-66 -32 -116 -63 -111 -67 5 -4 57 -29 117 -56 59 -27 111 -53 116
-59 5 -6 11 -31 13 -55 l3 -44 -55 -19 c-230 -80 -511 -127 -811 -135 l-216
-6 -57 104 -57 104 57 117 c32 65 56 119 54 122 -3 2 -63 -7 -134 -21 l-128
-25 -92 91 c-50 50 -94 91 -97 91 -3 0 -11 -53 -18 -117 -7 -65 -15 -125 -17
-133 -2 -8 -56 -42 -119 -75 -103 -54 -133 -75 -106 -75 17 0 231 -103 231
-111 0 -11 -195 42 -335 91 -147 53 -245 96 -245 109 0 6 -7 7 -17 4 -11 -4
-14 -3 -9 5 5 8 2 10 -8 6 -34 -13 -374 195 -551 336 -120 96 -237 209 -229
222 4 6 3 8 -3 5 -10 -6 -90 69 -85 81 1 4 -3 7 -10 7 -13 0 -90 90 -191 222
-126 166 -309 485 -289 505 8 8 47 6 137 -6 70 -10 129 -16 131 -13 3 3 -23
56 -57 117 l-63 112 58 115 c31 63 55 118 52 120 -3 3 -56 -4 -118 -16 -62
-12 -120 -21 -128 -21 -8 1 -58 42 -110 91 -77 75 -95 88 -100 73 -7 -19 -45
191 -58 319 l-8 78 75 81 76 80 116 -17 c64 -9 123 -15 132 -13 11 2 0 30 -49
116 l-64 112 60 120 c49 98 57 120 43 120 -10 -1 -70 -12 -133 -25 l-115 -24
-59 59 -60 59 27 133 c93 469 326 945 627 1279 8 10 23 28 32 42 l17 24 82
-24 c216 -62 511 -88 739 -64 125 13 338 52 410 76 25 8 70 22 100 31 65 19
310 135 310 146 0 4 -16 10 -35 14 -19 3 -35 9 -35 13 0 4 35 22 78 40 79 34
252 131 252 142 0 3 -35 12 -77 18 -43 7 -106 21 -139 32 -146 47 -258 176
-293 337 -19 90 -22 86 87 111 126 29 362 64 471 69 l33 2 -5 -42z"/>
<path d="M5907 7668 c-10 -11 -17 -22 -15 -24 3 -2 15 7 28 21 13 14 19 25 14
24 -5 0 -17 -10 -27 -21z"/>
<path d="M5859 7623 c-13 -16 -12 -17 4 -4 10 8 17 9 17 3 0 -6 -7 -15 -16
-20 -11 -6 -13 -12 -6 -16 15 -9 37 33 25 45 -6 6 -15 3 -24 -8z"/>
<path d="M4436 7598 c-16 -18 -28 -34 -27 -35 6 -13 -2 -15 -10 -3 -8 12 -9
10 -4 -7 7 -25 -13 -42 -26 -22 -5 8 -9 9 -9 4 0 -6 5 -16 11 -22 13 -13 22
-4 72 75 33 50 31 53 -7 10z"/>
<path d="M5825 7589 c-4 -6 -5 -12 -2 -15 2 -3 7 2 10 11 7 17 1 20 -8 4z"/>
<path d="M5845 7560 c-4 -6 -11 -8 -16 -5 -5 3 -6 -1 -3 -9 8 -21 11 -20 24 4
11 20 6 29 -5 10z"/>
<path d="M5787 7546 c-4 -10 -1 -13 9 -9 15 6 19 23 5 23 -5 0 -11 -7 -14 -14z"/>
<path d="M5803 7493 c-18 -37 -11 -39 11 -3 9 17 14 30 9 30 -4 0 -14 -12 -20
-27z"/>
<path d="M5739 7483 c-13 -16 -12 -17 4 -4 9 7 17 15 17 17 0 8 -8 3 -21 -13z"/>
<path d="M6395 7460 c-14 -5 -8 -7 22 -6 24 0 43 4 43 9 0 9 -39 8 -65 -3z"/>
<path d="M5715 7450 c-3 -5 1 -10 10 -10 9 0 13 5 10 10 -3 6 -8 10 -10 10 -2
0 -7 -4 -10 -10z"/>
<path d="M5766 7428 c-11 -15 -15 -17 -12 -6 3 12 1 15 -10 11 -11 -4 -12 -9
-3 -19 16 -20 24 -17 37 11 14 31 10 32 -12 3z"/>
<path d="M6320 7429 c0 -5 5 -7 10 -4 6 3 10 8 10 11 0 2 -4 4 -10 4 -5 0 -10
-5 -10 -11z"/>
<path d="M6263 7420 c-34 -14 -28 -21 7 -9 17 6 30 13 30 15 0 6 -12 4 -37 -6z"/>
<path d="M6305 7400 c-3 -5 -1 -10 4 -10 6 0 11 5 11 10 0 6 -2 10 -4 10 -3 0
-8 -4 -11 -10z"/>
<path d="M6172 7391 c-11 -6 -10 -10 4 -15 9 -3 19 -4 22 -1 3 3 0 5 -7 5 -7
0 -9 5 -6 10 7 12 4 12 -13 1z"/>
<path d="M5667 7376 c-4 -10 -5 -21 -2 -24 3 -3 5 -1 5 3 0 5 7 0 15 -11 15
-18 15 -18 8 0 -5 14 -3 17 7 11 9 -5 11 -4 6 4 -4 6 -11 9 -16 6 -5 -3 -10 3
-12 12 -3 17 -4 16 -11 -1z"/>
<path d="M6005 7335 c-16 -7 -23 -14 -14 -14 8 -1 24 6 35 14 24 18 18 18 -21
0z"/>
<path d="M5631 7314 c-16 -37 -9 -39 11 -3 9 16 14 29 9 29 -4 0 -13 -12 -20
-26z"/>
<path d="M5702 7297 c-12 -23 -22 -46 -22 -52 0 -5 12 12 26 39 14 26 24 49
22 51 -2 2 -14 -15 -26 -38z"/>
<path d="M5950 7310 c-9 -6 -10 -10 -3 -10 6 0 15 5 18 10 8 12 4 12 -15 0z"/>
<path d="M5659 7283 c-13 -16 -12 -17 4 -4 9 7 17 15 17 17 0 8 -8 3 -21 -13z"/>
<path d="M5828 7253 c-48 -26 -86 -48 -84 -51 4 -3 174 83 185 94 15 14 -26
-3 -101 -43z"/>
<path d="M6288 7293 c7 -3 16 -2 19 1 4 3 -2 6 -13 5 -11 0 -14 -3 -6 -6z"/>
<path d="M6215 7265 c-25 -12 -26 -14 -5 -9 28 7 60 23 45 23 -5 0 -23 -6 -40
-14z"/>
<path d="M5602 7258 c-11 -14 -62 -127 -62 -137 1 -3 8 5 16 19 14 24 15 24
11 2 -3 -13 -1 -20 5 -16 5 3 7 17 3 31 -4 16 -2 22 4 18 6 -3 8 0 5 9 -4 12
10 45 34 76 1 2 7 -2 12 -10 8 -13 10 -12 10 3 0 20 -23 23 -38 5z"/>
<path d="M5656 7213 c-3 -10 -9 -24 -12 -30 -3 -7 -2 -13 3 -13 5 0 14 14 20
30 6 17 8 30 3 30 -4 0 -10 -8 -14 -17z"/>
<path d="M6030 7198 c0 -4 -6 -8 -14 -8 -20 0 -29 -17 -15 -26 8 -5 9 -3 4 6
-6 9 -4 12 6 8 8 -3 30 2 48 11 l33 18 -31 0 c-17 0 -31 -4 -31 -9z"/>
<path d="M5686 7174 c-11 -8 -16 -14 -10 -14 13 0 39 18 34 24 -3 2 -14 -2
-24 -10z"/>
<path d="M5724 7168 c-14 -17 -15 -20 -2 -9 9 7 22 10 27 6 7 -3 8 0 5 9 -8
20 -7 20 -30 -6z"/>
<path d="M5960 7145 c-14 -8 -20 -14 -14 -15 5 0 19 7 30 15 24 18 16 19 -16
0z"/>
<path d="M5657 7137 c-3 -7 3 -13 14 -13 13 0 15 3 7 13 -6 7 -12 13 -13 13
-2 0 -5 -6 -8 -13z"/>
<path d="M5721 7141 c-10 -7 -7 -9 12 -8 14 1 23 5 20 10 -6 9 -15 9 -32 -2z"/>
<path d="M5526 7093 c-6 -14 -5 -15 5 -6 7 7 10 15 7 18 -3 3 -9 -2 -12 -12z"/>
<path d="M5555 7089 c-4 -6 -5 -12 -2 -15 2 -3 7 2 10 11 7 17 1 20 -8 4z"/>
<path d="M5450 7070 c-25 -10 -38 -19 -30 -19 17 1 101 37 85 38 -5 0 -30 -9
-55 -19z"/>
<path d="M5765 7055 c-27 -13 -45 -23 -40 -24 6 0 33 11 60 24 28 13 46 23 40
24 -5 0 -32 -11 -60 -24z"/>
<path d="M6126 7034 c-3 -22 -11 -82 -17 -136 l-11 -96 -121 -63 -122 -63 65
-30 c36 -17 92 -43 125 -57 l61 -27 17 -113 c27 -172 16 -167 121 -55 l91 98
130 -20 c72 -10 132 -18 133 -16 2 1 -26 55 -62 119 l-66 116 60 120 c49 97
57 119 43 119 -10 -1 -70 -12 -133 -25 l-115 -24 -96 96 -97 95 -6 -38z"/>
<path d="M5366 7041 c-11 -4 -15 -10 -10 -13 5 -4 18 0 29 8 20 15 12 17 -19
5z"/>
<path d="M5318 7023 c7 -3 16 -2 19 1 4 3 -2 6 -13 5 -11 0 -14 -3 -6 -6z"/>
<path d="M5630 7022 c6 -2 8 -8 4 -13 -7 -12 3 -11 46 5 l35 13 -47 -1 c-27
-1 -43 -3 -38 -4z"/>
<path d="M5243 7003 c9 -2 23 -2 30 0 6 3 -1 5 -18 5 -16 0 -22 -2 -12 -5z"/>
<path d="M5301 6996 c2 -2 18 -6 34 -10 22 -5 26 -4 15 4 -14 9 -59 15 -49 6z"/>
<path d="M5595 6990 c-3 -6 1 -7 9 -4 18 7 21 14 7 14 -6 0 -13 -4 -16 -10z"/>
<path d="M5063 6973 c9 -2 23 -2 30 0 6 3 -1 5 -18 5 -16 0 -22 -2 -12 -5z"/>
<path d="M5436 6955 c-3 -8 -1 -15 4 -15 6 0 10 7 10 15 0 8 -2 15 -4 15 -2 0
-6 -7 -10 -15z"/>
<path d="M5556 6945 c-9 -26 -7 -32 5 -12 6 10 9 21 6 23 -2 3 -7 -2 -11 -11z"/>
<path d="M5228 6943 c6 -2 18 -2 25 0 6 3 1 5 -13 5 -14 0 -19 -2 -12 -5z"/>
<path d="M5388 6933 c6 -2 18 -2 25 0 6 3 1 5 -13 5 -14 0 -19 -2 -12 -5z"/>
<path d="M4278 6923 c7 -3 16 -2 19 1 4 3 -2 6 -13 5 -11 0 -14 -3 -6 -6z"/>
<path d="M5298 6913 c7 -3 16 -2 19 1 4 3 -2 6 -13 5 -11 0 -14 -3 -6 -6z"/>
<path d="M7096 6905 c-8 -22 -8 -22 9 -22 17 0 18 6 6 25 -7 11 -10 10 -15 -3z"/>
<path d="M4070 6900 c-9 -6 -11 -10 -3 -10 7 0 10 -6 7 -14 -3 -8 -1 -17 5
-21 7 -4 8 0 4 11 -5 13 -3 15 8 9 12 -7 12 -6 1 7 -10 13 -10 17 0 21 7 3 9
6 3 6 -5 0 -17 -4 -25 -9z"/>
<path d="M7133 6895 c-3 -9 -3 -18 -1 -21 3 -3 8 4 11 16 6 23 -1 27 -10 5z"/>
<path d="M4388 6883 c6 -2 18 -2 25 0 6 3 1 5 -13 5 -14 0 -19 -2 -12 -5z"/>
<path d="M4498 6873 c6 -2 18 -2 25 0 6 3 1 5 -13 5 -14 0 -19 -2 -12 -5z"/>
<path d="M5048 6873 c6 -2 18 -2 25 0 6 3 1 5 -13 5 -14 0 -19 -2 -12 -5z"/>
<path d="M5531 6864 c0 -11 3 -14 6 -6 3 7 2 16 -1 19 -3 4 -6 -2 -5 -13z"/>
<path d="M4721 6866 c2 -2 33 -6 69 -9 41 -3 54 -2 35 3 -31 8 -112 13 -104 6z"/>
<path d="M4923 6863 c9 -2 23 -2 30 0 6 3 -1 5 -18 5 -16 0 -22 -2 -12 -5z"/>
<path d="M4678 6853 c6 -2 18 -2 25 0 6 3 1 5 -13 5 -14 0 -19 -2 -12 -5z"/>
<path d="M7117 6846 c-4 -10 -7 -25 -6 -34 0 -11 4 -9 10 7 5 13 8 29 6 35 -2
5 -6 2 -10 -8z"/>
<path d="M2806 6835 c-9 -26 -7 -32 5 -12 6 10 9 21 6 23 -2 3 -7 -2 -11 -11z"/>
<path d="M3976 6824 c-4 -9 -4 -19 -1 -22 3 -3 5 1 5 8 0 9 5 7 16 -6 14 -18
14 -18 3 6 -16 33 -16 33 -23 14z"/>
<path d="M5521 6824 c0 -11 3 -14 6 -6 3 7 2 16 -1 19 -3 4 -6 -2 -5 -13z"/>
<path d="M2784 6795 c3 -21 16 -31 16 -12 0 9 -4 18 -9 21 -5 4 -8 -1 -7 -9z"/>
<path d="M4045 6799 c-4 -6 -4 -13 -1 -16 3 -4 6 -1 6 6 0 7 5 9 12 5 7 -4 8
-3 4 4 -9 15 -13 15 -21 1z"/>
<path d="M7057 6791 c-4 -17 -3 -21 5 -13 5 5 8 16 6 23 -3 8 -7 3 -11 -10z"/>
<path d="M5415 6780 c-4 -12 -5 -24 -2 -27 3 -2 8 5 12 17 4 12 5 24 2 27 -3
2 -8 -5 -12 -17z"/>
<path d="M7096 6775 c-3 -9 -6 -22 -5 -28 0 -7 5 -1 10 12 5 13 8 26 5 28 -2
2 -6 -3 -10 -12z"/>
<path d="M3937 6698 c-14 -46 -28 -101 -31 -123 l-5 -40 12 45 c7 25 15 50 18
55 5 8 15 42 24 85 1 3 5 15 9 28 4 13 6 25 3 28 -2 2 -16 -33 -30 -78z"/>
<path d="M2735 6761 c-4 -7 -4 -15 -1 -18 3 -4 6 0 6 7 0 9 5 7 15 -6 9 -12
13 -32 10 -54 -4 -29 -2 -26 11 14 10 33 12 52 5 59 -7 7 -8 2 -5 -14 l6 -24
-20 24 c-13 17 -21 20 -27 12z"/>
<path d="M3990 6761 c0 -6 4 -13 10 -16 6 -3 7 1 4 9 -7 18 -14 21 -14 7z"/>
<path d="M4031 6694 c-7 -25 -10 -48 -8 -51 3 -2 10 17 16 43 7 25 10 48 8 51
-3 2 -10 -17 -16 -43z"/>
<path d="M5389 6698 c-26 -97 -59 -255 -58 -278 1 -15 5 -7 10 20 33 158 64
278 71 274 4 -3 5 2 2 10 -9 24 -12 20 -25 -26z"/>
<path d="M5481 6735 c1 -19 18 -51 18 -35 0 8 -4 22 -9 30 -5 8 -9 11 -9 5z"/>
<path d="M2719 6704 c-5 -15 -8 -29 -5 -31 2 -2 8 10 14 26 13 38 5 41 -9 5z"/>
<path d="M7021 6682 c-23 -71 -62 -224 -58 -228 2 -3 14 35 27 83 12 49 29
107 38 131 8 23 13 45 10 47 -3 3 -10 -12 -17 -33z"/>
<path d="M3146 6678 c-3 -18 -10 -76 -16 -128 -6 -52 -14 -98 -18 -101 -4 -4
-58 -34 -121 -67 l-114 -60 94 -44 c172 -79 151 -56 174 -195 11 -67 23 -124
26 -128 6 -5 56 44 150 148 l34 38 129 -20 c72 -11 131 -19 133 -17 2 2 -24
52 -58 112 -34 60 -61 114 -62 119 0 6 26 61 57 124 31 63 55 116 53 117 -2 2
-61 -8 -132 -22 l-128 -26 -91 91 c-50 50 -94 91 -98 91 -4 0 -9 -15 -12 -32z"/>
<path d="M7059 6651 c-7 -27 -15 -48 -18 -46 -4 2 -7 -14 -7 -36 -1 -22 0 -38
1 -37 7 7 45 161 41 165 -2 2 -10 -18 -17 -46z"/>
<path d="M4451 6577 c-21 -177 -8 -155 -137 -223 -62 -32 -114 -62 -114 -65 0
-3 53 -31 119 -61 l119 -56 11 -66 c6 -36 16 -96 22 -133 l12 -67 92 99 92 99
127 -18 c70 -10 129 -16 131 -14 3 2 -23 55 -56 117 l-62 112 54 116 c30 64
55 119 57 122 1 4 -55 -4 -124 -18 -81 -15 -131 -21 -140 -15 -7 5 -53 46
-102 91 l-89 82 -12 -102z"/>
<path d="M5452 6645 c0 -16 2 -22 5 -12 2 9 2 23 0 30 -3 6 -5 -1 -5 -18z"/>
<path d="M5481 6654 c0 -11 3 -14 6 -6 3 7 2 16 -1 19 -3 4 -6 -2 -5 -13z"/>
<path d="M5472 6610 c0 -14 2 -19 5 -12 2 6 2 18 0 25 -3 6 -5 1 -5 -13z"/>
<path d="M4006 6598 c-3 -13 -5 -32 -5 -43 1 -11 5 -2 10 19 10 42 6 62 -5 24z"/>
<path d="M2688 6585 c-3 -14 -1 -25 3 -25 5 0 9 11 9 25 0 14 -2 25 -4 25 -2
0 -6 -11 -8 -25z"/>
<path d="M2741 6594 c0 -11 3 -14 6 -6 3 7 2 16 -1 19 -3 4 -6 -2 -5 -13z"/>
<path d="M5462 6555 c0 -16 2 -22 5 -12 2 9 2 23 0 30 -3 6 -5 -1 -5 -18z"/>
<path d="M2731 6544 c0 -11 3 -14 6 -6 3 7 2 16 -1 19 -3 4 -6 -2 -5 -13z"/>
<path d="M2676 6533 c-4 -9 -3 -20 1 -24 4 -4 9 3 9 17 2 28 -1 31 -10 7z"/>
<path d="M3891 6514 c0 -11 3 -14 6 -6 3 7 2 16 -1 19 -3 4 -6 -2 -5 -13z"/>
<path d="M3991 6514 c0 -11 3 -14 6 -6 3 7 2 16 -1 19 -3 4 -6 -2 -5 -13z"/>
<path d="M2721 6504 c0 -11 3 -14 6 -6 3 7 2 16 -1 19 -3 4 -6 -2 -5 -13z"/>
<path d="M7022 6500 c0 -14 2 -19 5 -12 2 6 2 18 0 25 -3 6 -5 1 -5 -13z"/>
<path d="M5452 6480 c0 -19 2 -27 5 -17 2 9 2 25 0 35 -3 9 -5 1 -5 -18z"/>
<path d="M6991 6474 c0 -11 3 -14 6 -6 3 7 2 16 -1 19 -3 4 -6 -2 -5 -13z"/>
<path d="M2661 6464 c0 -11 3 -14 6 -6 3 7 2 16 -1 19 -3 4 -6 -2 -5 -13z"/>
<path d="M2712 6450 c0 -14 2 -19 5 -12 2 6 2 18 0 25 -3 6 -5 1 -5 -13z"/>
<path d="M3982 6440 c0 -14 2 -19 5 -12 2 6 2 18 0 25 -3 6 -5 1 -5 -13z"/>
<path d="M3871 6434 c0 -11 3 -14 6 -6 3 7 2 16 -1 19 -3 4 -6 -2 -5 -13z"/>
<path d="M7006 6435 c-3 -9 -6 -24 -5 -33 0 -9 5 -4 10 12 9 32 6 48 -5 21z"/>
<path d="M3891 6424 c0 -11 3 -14 6 -6 3 7 2 16 -1 19 -3 4 -6 -2 -5 -13z"/>
<path d="M5444 6290 c0 -85 2 -120 3 -77 2 42 2 112 0 155 -1 42 -3 7 -3 -78z"/>
<path d="M2701 6404 c0 -11 3 -14 6 -6 3 7 2 16 -1 19 -3 4 -6 -2 -5 -13z"/>
<path d="M3973 6360 c0 -25 2 -35 4 -22 2 12 2 32 0 45 -2 12 -4 2 -4 -23z"/>
<path d="M5321 6364 c0 -11 3 -14 6 -6 3 7 2 16 -1 19 -3 4 -6 -2 -5 -13z"/>
<path d="M6941 6364 c0 -11 3 -14 6 -6 3 7 2 16 -1 19 -3 4 -6 -2 -5 -13z"/>
<path d="M3852 6310 c0 -19 2 -27 5 -17 2 9 2 25 0 35 -3 9 -5 1 -5 -18z"/>
<path d="M3942 6295 c0 -16 2 -22 5 -12 2 9 2 23 0 30 -3 6 -5 -1 -5 -18z"/>
<path d="M2652 6290 c0 -14 2 -19 5 -12 2 6 2 18 0 25 -3 6 -5 1 -5 -13z"/>
<path d="M5316 6283 c-6 -14 -5 -15 5 -6 7 7 10 15 7 18 -3 3 -9 -2 -12 -12z"/>
<path d="M3963 6220 c0 -36 2 -50 4 -32 2 17 2 47 0 65 -2 17 -4 3 -4 -33z"/>
<path d="M5300 6189 c0 -11 4 -18 10 -14 5 3 7 12 3 20 -7 21 -13 19 -13 -6z"/>
<path d="M2631 6184 c0 -11 3 -14 6 -6 3 7 2 16 -1 19 -3 4 -6 -2 -5 -13z"/>
<path d="M2612 6130 c0 -14 2 -19 5 -12 2 6 2 18 0 25 -3 6 -5 1 -5 -13z"/>
<path d="M6901 6124 c0 -11 3 -14 6 -6 3 7 2 16 -1 19 -3 4 -6 -2 -5 -13z"/>
<path d="M5453 6085 c0 -22 2 -30 4 -17 2 12 2 30 0 40 -3 9 -5 -1 -4 -23z"/>
<path d="M3976 6035 c10 -125 12 -146 30 -213 23 -85 28 -73 9 21 -9 42 -23
120 -30 174 l-15 98 6 -80z"/>
<path d="M3932 6050 c0 -19 2 -27 5 -17 2 9 2 25 0 35 -3 9 -5 1 -5 -18z"/>
<path d="M5462 6020 c0 -14 2 -19 5 -12 2 6 2 18 0 25 -3 6 -5 1 -5 -13z"/>
<path d="M6263 6033 c37 -2 96 -2 130 0 34 2 4 3 -68 3 -71 0 -99 -1 -62 -3z"/>
<path d="M6048 6023 c18 -2 45 -2 60 0 15 2 0 4 -33 4 -33 0 -45 -2 -27 -4z"/>
<path d="M6523 6023 c9 -2 23 -2 30 0 6 3 -1 5 -18 5 -16 0 -22 -2 -12 -5z"/>
<path d="M6588 6023 c12 -2 30 -2 40 0 9 3 -1 5 -23 4 -22 0 -30 -2 -17 -4z"/>
<path d="M5948 6013 c12 -2 30 -2 40 0 9 3 -1 5 -23 4 -22 0 -30 -2 -17 -4z"/>
<path d="M6693 6013 c9 -2 25 -2 35 0 9 3 1 5 -18 5 -19 0 -27 -2 -17 -5z"/>
<path d="M5863 6003 c9 -2 23 -2 30 0 6 3 -1 5 -18 5 -16 0 -22 -2 -12 -5z"/>
<path d="M6783 6003 c15 -2 37 -2 50 0 12 2 0 4 -28 4 -27 0 -38 -2 -22 -4z"/>
<path d="M3921 5984 c0 -11 3 -14 6 -6 3 7 2 16 -1 19 -3 4 -6 -2 -5 -13z"/>
<path d="M5788 5993 c6 -2 18 -2 25 0 6 3 1 5 -13 5 -14 0 -19 -2 -12 -5z"/>
<path d="M5738 5983 c7 -3 16 -2 19 1 4 3 -2 6 -13 5 -11 0 -14 -3 -6 -6z"/>
<path d="M6618 5983 c7 -3 16 -2 19 1 4 3 -2 6 -13 5 -11 0 -14 -3 -6 -6z"/>
<path d="M5472 5960 c0 -14 2 -19 5 -12 2 6 2 18 0 25 -3 6 -5 1 -5 -13z"/>
<path d="M5668 5973 c6 -2 10 -9 6 -14 -9 -15 2 -10 16 6 10 13 9 15 -11 14
-13 0 -18 -3 -11 -6z"/>
<path d="M6998 5973 c7 -3 16 -2 19 1 4 3 -2 6 -13 5 -11 0 -14 -3 -6 -6z"/>
<path d="M6488 5963 c28 -2 76 -2 105 0 28 2 5 3 -53 3 -58 0 -81 -1 -52 -3z"/>
<path d="M6800 5961 c0 -5 7 -11 15 -15 8 -3 15 -1 15 3 0 5 -7 11 -15 15 -8
3 -15 1 -15 -3z"/>
<path d="M7053 5963 c9 -2 23 -2 30 0 6 3 -1 5 -18 5 -16 0 -22 -2 -12 -5z"/>
<path d="M6215 5950 c-17 -8 -17 -9 7 -7 15 1 24 5 22 9 -3 4 -6 8 -7 7 -1 0
-11 -4 -22 -9z"/>
<path d="M6298 5953 c12 -2 32 -2 45 0 12 2 2 4 -23 4 -25 0 -35 -2 -22 -4z"/>
<path d="M6698 5953 c18 -2 45 -2 60 0 15 2 0 4 -33 4 -33 0 -45 -2 -27 -4z"/>
<path d="M6845 5950 c-3 -5 -1 -10 4 -10 6 0 11 5 11 10 0 6 -2 10 -4 10 -3 0
-8 -4 -11 -10z"/>
<path d="M6130 5940 c-13 -8 -13 -10 2 -10 9 0 20 5 23 10 8 13 -5 13 -25 0z"/>
<path d="M6985 5930 c3 -5 16 -10 28 -9 21 0 21 1 2 9 -28 12 -37 12 -30 0z"/>
<path d="M6058 5923 c6 -2 18 -2 25 0 6 3 1 5 -13 5 -14 0 -19 -2 -12 -5z"/>
<path d="M5322 5890 c0 -19 2 -27 5 -17 2 9 2 25 0 35 -3 9 -5 1 -5 -18z"/>
<path d="M6008 5913 c6 -2 18 -2 25 0 6 3 1 5 -13 5 -14 0 -19 -2 -12 -5z"/>
<path d="M6883 5880 c0 -25 2 -35 4 -22 2 12 2 32 0 45 -2 12 -4 2 -4 -23z"/>
<path d="M7338 5913 c7 -3 16 -2 19 1 4 3 -2 6 -13 5 -11 0 -14 -3 -6 -6z"/>
<path d="M5788 5903 c6 -2 18 -2 25 0 6 3 1 5 -13 5 -14 0 -19 -2 -12 -5z"/>
<path d="M7420 5892 c24 -11 22 -32 -2 -32 -17 -1 -12 -5 16 -15 65 -23 83
-26 83 -12 0 9 -11 12 -31 9 -25 -3 -28 -1 -16 8 12 9 11 10 -6 6 -14 -5 -21
-2 -21 9 0 8 7 15 16 16 20 1 -17 18 -39 18 -13 0 -13 -1 0 -7z"/>
<path d="M5278 5873 c7 -3 16 -2 19 1 4 3 -2 6 -13 5 -11 0 -14 -3 -6 -6z"/>
<path d="M5193 5847 c-29 -12 -53 -25 -53 -29 0 -6 108 37 119 48 9 8 -16 1
-66 -19z"/>
<path d="M7525 5860 c3 -5 14 -10 23 -10 16 -1 16 -1 0 -13 -15 -12 -13 -14
15 -25 17 -6 32 -10 35 -8 2 2 -6 7 -17 11 -12 3 -21 11 -21 17 0 6 9 8 20 4
84 -26 82 -19 -3 13 -32 12 -55 17 -52 11z"/>
<path d="M2370 5839 c41 -4 82 -5 92 -3 9 3 19 0 23 -6 3 -5 14 -10 23 -10 15
0 15 2 2 11 -11 8 -8 9 15 5 22 -5 26 -4 15 4 -8 5 -66 9 -130 8 -115 -1 -115
-1 -40 -9z"/>
<path d="M2567 5837 c3 -5 -1 -13 -8 -18 -11 -7 -10 -9 4 -9 9 0 17 7 17 16 0
10 5 14 16 10 8 -3 12 -2 9 3 -3 6 -14 9 -25 8 -10 -1 -16 -5 -13 -10z"/>
<path d="M2700 5830 c0 -5 7 -7 15 -4 8 4 15 8 15 10 0 2 -7 4 -15 4 -8 0 -15
-4 -15 -10z"/>
<path d="M5570 5834 c0 -6 -12 -15 -27 -22 -26 -10 -26 -11 -3 -5 30 6 46 20
37 30 -4 3 -7 2 -7 -3z"/>
<path d="M5628 5833 c7 -3 16 -2 19 1 4 3 -2 6 -13 5 -11 0 -14 -3 -6 -6z"/>
<path d="M2768 5823 c12 -2 30 -2 40 0 9 3 -1 5 -23 4 -22 0 -30 -2 -17 -4z"/>
<path d="M2848 5813 c12 -2 30 -2 40 0 9 3 -1 5 -23 4 -22 0 -30 -2 -17 -4z"/>
<path d="M2910 5806 c0 -9 50 -12 62 -5 8 6 -1 9 -24 9 -21 0 -38 -2 -38 -4z"/>
<path d="M5150 5800 c-13 -8 -13 -10 2 -10 9 0 20 5 23 10 8 13 -5 13 -25 0z"/>
<path d="M7687 5799 c7 -7 15 -10 18 -7 3 3 -2 9 -12 12 -14 6 -15 5 -6 -5z"/>
<path d="M2990 5796 c0 -2 9 -6 20 -9 11 -3 18 -1 14 4 -5 9 -34 13 -34 5z"/>
<path d="M2775 5780 c17 -4 39 -8 50 -8 16 0 15 2 -5 8 -14 4 -36 8 -50 8 -22
0 -22 -1 5 -8z"/>
<path d="M3058 5783 c6 -2 18 -2 25 0 6 3 1 5 -13 5 -14 0 -19 -2 -12 -5z"/>
<path d="M5055 5780 c-3 -5 -1 -10 4 -10 6 0 11 5 11 10 0 6 -2 10 -4 10 -3 0
-8 -4 -11 -10z"/>
<path d="M7699 5769 c30 -11 56 -17 58 -15 3 2 -5 7 -18 11 -12 4 -17 10 -11
14 5 3 -11 6 -36 7 l-47 1 54 -18z"/>
<path d="M3119 5767 c5 -5 19 -7 32 -5 20 3 19 5 -9 9 -20 3 -29 2 -23 -4z"/>
<path d="M2858 5763 c6 -2 18 -2 25 0 6 3 1 5 -13 5 -14 0 -19 -2 -12 -5z"/>
<path d="M2920 5750 c14 -4 34 -8 45 -8 16 0 15 2 -5 8 -14 4 -34 8 -45 8 -16
0 -15 -2 5 -8z"/>
<path d="M5011 5743 c7 -12 15 -20 18 -17 3 2 -3 12 -13 22 -17 16 -18 16 -5
-5z"/>
<path d="M5330 5745 c0 -8 4 -15 10 -15 5 0 7 7 4 15 -4 8 -8 15 -10 15 -2 0
-4 -7 -4 -15z"/>
<path d="M3235 5740 c3 -5 11 -10 16 -10 6 0 7 5 4 10 -3 6 -11 10 -16 10 -6
0 -7 -4 -4 -10z"/>
<path d="M5303 5743 c4 -3 -1 -12 -11 -19 -15 -12 -15 -12 6 -7 22 5 31 33 10
33 -6 0 -8 -3 -5 -7z"/>
<path d="M2998 5733 c7 -3 16 -2 19 1 4 3 -2 6 -13 5 -11 0 -14 -3 -6 -6z"/>
<path d="M6873 5695 c0 -27 2 -38 4 -22 2 15 2 37 0 50 -2 12 -4 0 -4 -28z"/>
<path d="M3038 5723 c7 -3 16 -2 19 1 4 3 -2 6 -13 5 -11 0 -14 -3 -6 -6z"/>
<path d="M3117 5719 c7 -7 15 -10 18 -7 3 3 -2 9 -12 12 -14 6 -15 5 -6 -5z"/>
<path d="M4036 5695 c4 -22 10 -47 15 -55 10 -18 0 46 -12 75 -6 13 -6 5 -3
-20z"/>
<path d="M3177 5709 c8 -8 16 -8 30 0 16 9 14 10 -11 11 -22 0 -27 -3 -19 -11z"/>
<path d="M3258 5713 c7 -3 16 -2 19 1 4 3 -2 6 -13 5 -11 0 -14 -3 -6 -6z"/>
<path d="M3368 5703 c7 -3 16 -2 19 1 4 3 -2 6 -13 5 -11 0 -14 -3 -6 -6z"/>
<path d="M5236 5695 c-11 -8 -16 -15 -10 -15 5 0 18 7 28 15 11 8 16 15 10 15
-5 0 -18 -7 -28 -15z"/>
<path d="M5320 5702 c0 -4 9 -8 19 -8 11 0 17 4 15 8 -3 4 -12 8 -20 8 -8 0
-14 -4 -14 -8z"/>
<path d="M6176 5699 c-2 -8 -10 -61 -16 -119 -6 -58 -14 -113 -16 -122 -3 -10
-55 -42 -119 -75 -63 -32 -115 -60 -115 -63 0 -3 52 -30 115 -59 64 -30 118
-58 121 -62 3 -5 14 -62 25 -126 11 -64 22 -120 25 -125 3 -4 44 35 91 87 61
68 93 95 109 95 13 0 71 -7 130 -16 58 -8 108 -13 111 -10 3 3 -23 56 -57 117
l-63 113 57 113 c31 62 56 117 56 121 0 5 -59 -3 -130 -17 l-130 -25 -95 94
c-63 63 -96 89 -99 79z"/>
<path d="M5005 5690 c-16 -7 -17 -9 -3 -9 9 -1 20 4 23 9 7 11 7 11 -20 0z"/>
<path d="M3430 5680 c8 -5 22 -9 30 -9 10 0 8 3 -5 9 -27 12 -43 12 -25 0z"/>
<path d="M4820 5680 c-18 -12 -2 -12 25 0 13 6 15 9 5 9 -8 0 -22 -4 -30 -9z"/>
<path d="M5523 5675 c-3 -9 -3 -18 -1 -21 3 -3 8 4 11 16 6 23 -1 27 -10 5z"/>
<path d="M2692 5660 c0 -14 2 -19 5 -12 2 6 2 18 0 25 -3 6 -5 1 -5 -13z"/>
<path d="M3487 5659 c11 -11 24 -14 103 -24 32 -4 23 1 -30 14 -90 24 -87 24
-73 10z"/>
<path d="M4765 5660 c-13 -6 -15 -9 -5 -9 8 0 22 4 30 9 18 12 2 12 -25 0z"/>
<path d="M2603 5610 c0 -25 2 -35 4 -22 2 12 2 32 0 45 -2 12 -4 2 -4 -23z"/>
<path d="M4675 5634 c-37 -13 -37 -14 -7 -9 45 6 60 10 68 18 11 11 -16 7 -61
-9z"/>
<path d="M5333 5636 c4 -10 7 -24 7 -32 0 -9 4 -13 9 -10 11 7 3 44 -12 53 -7
4 -8 0 -4 -11z"/>
<path d="M3350 5631 c0 -5 9 -7 20 -4 11 3 20 7 20 9 0 2 -9 4 -20 4 -11 0
-20 -4 -20 -9z"/>
<path d="M3650 5621 c8 -6 28 -11 44 -11 39 0 31 6 -19 14 -29 5 -36 4 -25 -3z"/>
<path d="M3380 5616 c0 -3 13 -12 28 -20 24 -13 29 -13 29 -1 0 8 -4 12 -8 9
-5 -3 -18 0 -29 6 -11 6 -20 8 -20 6z"/>
<path d="M4570 5610 c-20 -6 -21 -8 -5 -8 11 0 31 4 45 8 20 6 21 8 5 8 -11 0
-31 -4 -45 -8z"/>
<path d="M5546 5605 c-3 -8 -1 -15 4 -15 6 0 10 7 10 15 0 8 -2 15 -4 15 -2 0
-6 -7 -10 -15z"/>
<path d="M3748 5603 c6 -2 18 -2 25 0 6 3 1 5 -13 5 -14 0 -19 -2 -12 -5z"/>
<path d="M4967 5598 c2 -5 -4 -8 -14 -9 -10 0 -13 -3 -7 -5 5 -2 28 2 50 10
l39 14 -36 -1 c-21 -1 -35 -5 -32 -9z"/>
<path d="M3810 5590 c19 -13 30 -13 30 0 0 6 -10 10 -22 10 -19 0 -20 -2 -8
-10z"/>
<path d="M4445 5590 l-40 -7 35 0 c19 -1 49 3 65 7 27 7 27 8 5 7 -14 0 -43
-3 -65 -7z"/>
<path d="M4770 5583 c8 -3 21 -10 28 -16 9 -7 11 -6 6 7 -3 9 -16 16 -28 15
-14 0 -16 -2 -6 -6z"/>
<path d="M3485 5566 c17 -8 32 -12 34 -10 7 7 -3 12 -34 18 l-30 6 30 -14z"/>
<path d="M4001 5564 c0 -11 3 -14 6 -6 3 7 2 16 -1 19 -3 4 -6 -2 -5 -13z"/>
<path d="M4338 5573 c6 -2 18 -2 25 0 6 3 1 5 -13 5 -14 0 -19 -2 -12 -5z"/>
<path d="M4908 5573 c7 -3 16 -2 19 1 4 3 -2 6 -13 5 -11 0 -14 -3 -6 -6z"/>
<path d="M5357 5545 c3 -22 7 -42 9 -44 8 -9 2 45 -6 64 -7 14 -8 8 -3 -20z"/>
<path d="M5556 5563 c-6 -14 -5 -15 5 -6 7 7 10 15 7 18 -3 3 -9 -2 -12 -12z"/>
<path d="M3577 5559 c7 -7 15 -10 18 -7 3 3 -2 9 -12 12 -14 6 -15 5 -6 -5z"/>
<path d="M3535 5550 c3 -5 14 -10 23 -10 15 0 15 2 2 10 -20 13 -33 13 -25 0z"/>
<path d="M3658 5543 c7 -3 16 -2 19 1 4 3 -2 6 -13 5 -11 0 -14 -3 -6 -6z"/>
<path d="M3598 5533 c6 -2 18 -2 25 0 6 3 1 5 -13 5 -14 0 -19 -2 -12 -5z"/>
<path d="M4168 5533 c7 -3 16 -2 19 1 4 3 -2 6 -13 5 -11 0 -14 -3 -6 -6z"/>
<path d="M4328 5533 c7 -3 16 -2 19 1 4 3 -2 6 -13 5 -11 0 -14 -3 -6 -6z"/>
<path d="M4748 5533 c7 -3 16 -2 19 1 4 3 -2 6 -13 5 -11 0 -14 -3 -6 -6z"/>
<path d="M2721 5514 c0 -11 3 -14 6 -6 3 7 2 16 -1 19 -3 4 -6 -2 -5 -13z"/>
<path d="M4698 5523 c6 -2 18 -2 25 0 6 3 1 5 -13 5 -14 0 -19 -2 -12 -5z"/>
<path d="M3688 5513 c7 -3 16 -2 19 1 4 3 -2 6 -13 5 -11 0 -14 -3 -6 -6z"/>
<path d="M4648 5513 c7 -3 16 -2 19 1 4 3 -2 6 -13 5 -11 0 -14 -3 -6 -6z"/>
<path d="M5576 5505 c4 -8 11 -15 16 -15 6 0 5 6 -2 15 -7 8 -14 15 -16 15 -2
0 -1 -7 2 -15z"/>
<path d="M3728 5503 c7 -3 16 -2 19 1 4 3 -2 6 -13 5 -11 0 -14 -3 -6 -6z"/>
<path d="M3890 5506 c0 -2 7 -7 16 -10 8 -3 12 -2 9 4 -6 10 -25 14 -25 6z"/>
<path d="M5421 5494 c0 -11 3 -14 6 -6 3 7 2 16 -1 19 -3 4 -6 -2 -5 -13z"/>
<path d="M3808 5493 c6 -2 18 -2 25 0 6 3 1 5 -13 5 -14 0 -19 -2 -12 -5z"/>
<path d="M4518 5493 c7 -3 16 -2 19 1 4 3 -2 6 -13 5 -11 0 -14 -3 -6 -6z"/>
<path d="M6991 5484 c0 -11 3 -14 6 -6 3 7 2 16 -1 19 -3 4 -6 -2 -5 -13z"/>
<path d="M4168 5483 c7 -3 16 -2 19 1 4 3 -2 6 -13 5 -11 0 -14 -3 -6 -6z"/>
<path d="M5371 5485 c1 -19 18 -51 18 -35 0 8 -4 22 -9 30 -5 8 -9 11 -9 5z"/>
<path d="M2731 5464 c0 -11 3 -14 6 -6 3 7 2 16 -1 19 -3 4 -6 -2 -5 -13z"/>
<path d="M3880 5471 c0 -5 5 -13 10 -16 6 -3 10 -2 10 4 0 5 -4 13 -10 16 -5
3 -10 2 -10 -4z"/>
<path d="M6893 5405 c0 -22 2 -30 4 -17 2 12 2 30 0 40 -3 9 -5 -1 -4 -23z"/>
<path d="M2741 5404 c0 -11 3 -14 6 -6 3 7 2 16 -1 19 -3 4 -6 -2 -5 -13z"/>
<path d="M3905 5395 c7 -31 12 -41 19 -34 2 2 -3 18 -11 34 l-14 30 6 -30z"/>
<path d="M5621 5418 c-1 -12 31 -89 35 -85 3 2 -4 24 -15 48 -11 24 -20 41
-20 37z"/>
<path d="M6930 5370 c0 -5 5 -10 11 -10 5 0 7 5 4 10 -3 6 -8 10 -11 10 -2 0
-4 -4 -4 -10z"/>
<path d="M7010 5364 c0 -10 5 -26 10 -34 8 -11 9 -7 4 15 -8 37 -14 45 -14 19z"/>
<path d="M2760 5324 c0 -10 5 -26 10 -34 8 -11 9 -7 4 15 -8 37 -14 45 -14 19z"/>
<path d="M4150 5338 c0 -14 31 -77 41 -83 6 -4 1 13 -11 36 -23 46 -30 56 -30
47z"/>
<path d="M4850 5338 c0 -2 -7 -57 -15 -123 -8 -65 -15 -122 -15 -126 0 -4 -52
-35 -115 -69 -63 -34 -113 -65 -111 -69 3 -4 56 -31 119 -60 l114 -52 18 -117
c9 -64 21 -123 25 -130 5 -10 34 16 97 83 l90 96 129 -20 c71 -11 130 -18 132
-17 2 2 -24 53 -58 114 -33 60 -60 115 -60 121 0 6 25 61 56 122 30 61 53 113
50 116 -2 2 -62 -7 -132 -21 l-128 -26 -91 90 c-77 77 -105 100 -105 88z"/>
<path d="M5420 5333 c0 -4 5 -15 10 -23 8 -13 10 -13 10 2 0 9 -4 20 -10 23
-5 3 -10 3 -10 -2z"/>
<path d="M5617 5310 c-9 -11 -13 -20 -7 -20 5 0 14 9 20 20 6 11 9 20 8 20 -2
0 -11 -9 -21 -20z"/>
<path d="M5670 5316 c0 -11 30 -66 36 -66 2 0 -3 15 -12 33 -19 36 -24 44 -24
33z"/>
<path d="M5650 5301 c0 -6 4 -13 10 -16 6 -3 7 1 4 9 -7 18 -14 21 -14 7z"/>
<path d="M3387 5273 c-3 -15 -11 -75 -18 -133 l-11 -105 -114 -60 c-63 -33
-113 -64 -111 -68 1 -4 52 -31 112 -59 61 -28 112 -54 115 -59 3 -4 14 -59 24
-121 10 -62 20 -119 22 -127 3 -10 37 20 97 84 l93 99 128 -18 c70 -10 129
-16 131 -14 2 2 -25 55 -60 118 l-63 114 59 118 c69 138 76 131 -96 94 l-110
-24 -97 95 c-95 94 -96 94 -101 66z"/>
<path d="M3948 5273 c7 -3 16 -2 19 1 4 3 -2 6 -13 5 -11 0 -14 -3 -6 -6z"/>
<path d="M5455 5269 c-4 -6 -5 -12 -2 -15 2 -3 7 2 10 11 7 17 1 20 -8 4z"/>
<path d="M5487 5273 c-11 -11 -8 -20 7 -20 8 0 12 6 9 14 -6 15 -7 15 -16 6z"/>
<path d="M2776 5250 c3 -14 10 -32 15 -40 7 -13 8 -13 8 0 0 8 -6 26 -15 40
l-15 25 7 -25z"/>
<path d="M3957 5243 c3 -7 9 -10 14 -7 14 8 11 21 -5 21 -8 0 -12 -6 -9 -14z"/>
<path d="M5721 5223 c7 -12 15 -20 18 -17 3 2 -3 12 -13 22 -17 16 -18 16 -5
-5z"/>
<path d="M7051 5194 c0 -11 3 -14 6 -6 3 7 2 16 -1 19 -3 4 -6 -2 -5 -13z"/>
<path d="M3981 5195 c0 -5 6 -21 14 -35 8 -14 14 -20 14 -15 0 6 -6 21 -14 35
-8 14 -14 21 -14 15z"/>
<path d="M2661 5164 c0 -11 3 -14 6 -6 3 7 2 16 -1 19 -3 4 -6 -2 -5 -13z"/>
<path d="M2696 5165 c-3 -9 -6 -22 -5 -28 0 -7 5 -1 10 12 5 13 8 26 5 28 -2
2 -6 -3 -10 -12z"/>
<path d="M4244 5157 c1 -15 9 -33 16 -40 12 -10 12 -9 2 4 -6 9 -9 18 -6 22 3
3 1 14 -5 24 -8 15 -9 14 -7 -10z"/>
<path d="M5490 5174 c0 -6 7 -19 16 -30 14 -18 14 -18 3 6 -14 31 -19 36 -19
24z"/>
<path d="M7061 5163 c-1 -16 51 -174 56 -169 2 2 -10 43 -26 92 -16 49 -30 84
-30 77z"/>
<path d="M5776 5147 c3 -10 9 -15 12 -12 3 3 0 11 -7 18 -10 9 -11 8 -5 -6z"/>
<path d="M2671 5130 c0 -8 4 -24 9 -35 5 -13 9 -14 9 -5 0 8 -4 24 -9 35 -5
13 -9 14 -9 5z"/>
<path d="M2820 5123 c0 -7 5 -24 12 -39 11 -23 10 -28 -7 -40 -10 -8 -14 -14
-8 -14 7 0 15 5 19 11 4 7 12 1 20 -17 23 -54 14 -8 -11 52 -13 32 -24 54 -25
47z"/>
<path d="M4026 5090 c10 -16 19 -28 21 -26 6 6 -20 56 -29 56 -5 0 -1 -13 8
-30z"/>
<path d="M4289 5105 c17 -34 31 -51 31 -39 0 7 -9 22 -21 35 -16 19 -18 20
-10 4z"/>
<path d="M5773 5110 c2 -8 9 -14 15 -13 11 3 32 -37 73 -142 15 -38 28 -65 28
-59 1 6 -15 51 -34 99 -37 92 -65 141 -65 115 0 -13 -2 -13 -11 0 -9 13 -10
13 -6 0z"/>
<path d="M4270 5091 c0 -6 4 -13 10 -16 6 -3 7 1 4 9 -7 18 -14 21 -14 7z"/>
<path d="M2690 5068 c0 -12 32 -110 35 -106 5 5 -19 96 -28 104 -4 4 -7 5 -7
2z"/>
<path d="M5570 5040 c12 -16 24 -30 26 -30 3 0 -3 14 -13 30 -9 17 -21 30 -26
30 -5 0 1 -13 13 -30z"/>
<path d="M5771 5054 c0 -11 3 -14 6 -6 3 7 2 16 -1 19 -3 4 -6 -2 -5 -13z"/>
<path d="M6951 5044 c0 -11 3 -14 6 -6 3 7 2 16 -1 19 -3 4 -6 -2 -5 -13z"/>
<path d="M4059 5035 c17 -33 31 -51 31 -40 0 6 -10 21 -21 35 -13 17 -17 18
-10 5z"/>
<path d="M7052 5030 c0 -14 2 -19 5 -12 2 6 2 18 0 25 -3 6 -5 1 -5 -13z"/>
<path d="M7012 5015 c0 -16 2 -22 5 -12 2 9 2 23 0 30 -3 6 -5 -1 -5 -18z"/>
<path d="M4330 5015 c0 -8 4 -15 10 -15 5 0 7 7 4 15 -4 8 -8 15 -10 15 -2 0
-4 -7 -4 -15z"/>
<path d="M6965 4988 c11 -39 76 -210 86 -230 6 -11 13 -17 16 -14 3 3 1 11 -4
18 -19 25 -64 151 -59 165 3 8 2 11 -4 8 -5 -3 -14 13 -20 35 -6 22 -13 40
-16 40 -3 0 -2 -10 1 -22z"/>
<path d="M7070 5000 c-9 -6 -10 -10 -3 -10 6 0 15 5 18 10 8 12 4 12 -15 0z"/>
<path d="M5610 4993 c0 -4 5 -15 10 -23 8 -13 10 -13 10 2 0 9 -4 20 -10 23
-5 3 -10 3 -10 -2z"/>
<path d="M2880 4981 c0 -6 4 -13 10 -16 6 -3 7 1 4 9 -7 18 -14 21 -14 7z"/>
<path d="M4100 4975 c0 -6 8 -20 18 -33 l17 -22 14 22 c13 21 13 22 -1 10 -14
-11 -19 -9 -32 10 -9 12 -16 18 -16 13z"/>
<path d="M7120 4978 c0 -3 9 -25 19 -49 11 -24 17 -47 14 -53 -3 -5 -1 -6 5
-2 8 5 7 19 -5 49 -15 39 -33 69 -33 55z"/>
<path d="M4366 4940 c3 -14 10 -29 15 -34 14 -16 10 6 -7 34 l-15 25 7 -25z"/>
<path d="M2730 4949 c0 -8 29 -79 33 -79 1 0 3 19 3 43 1 27 -1 35 -6 22 -7
-19 -7 -19 -18 0 -6 11 -12 17 -12 14z"/>
<path d="M2900 4941 c0 -6 4 -13 10 -16 6 -3 7 1 4 9 -7 18 -14 21 -14 7z"/>
<path d="M5665 4910 c-3 -5 -1 -10 4 -10 6 0 11 5 11 10 0 6 -2 10 -4 10 -3 0
-8 -4 -11 -10z"/>
<path d="M5850 4911 c0 -5 5 -13 10 -16 6 -3 10 -2 10 4 0 5 -4 13 -10 16 -5
3 -10 2 -10 -4z"/>
<path d="M2921 4894 c0 -11 3 -14 6 -6 3 7 2 16 -1 19 -3 4 -6 -2 -5 -13z"/>
<path d="M4170 4870 c6 -11 13 -20 16 -20 2 0 0 9 -6 20 -6 11 -13 20 -16 20
-2 0 0 -9 6 -20z"/>
<path d="M4200 4865 c0 -8 4 -15 10 -15 5 0 7 7 4 15 -4 8 -8 15 -10 15 -2 0
-4 -7 -4 -15z"/>
<path d="M5880 4869 c0 -5 5 -7 10 -4 6 3 10 8 10 11 0 2 -4 4 -10 4 -5 0 -10
-5 -10 -11z"/>
<path d="M2930 4865 c0 -5 5 -17 10 -25 5 -8 10 -10 10 -5 0 6 -5 17 -10 25
-5 8 -10 11 -10 5z"/>
<path d="M4407 4840 c3 -14 6 -34 5 -44 -1 -13 2 -16 9 -9 7 7 5 21 -5 44 -10
21 -13 24 -9 9z"/>
<path d="M5901 4850 c0 -8 4 -22 9 -30 12 -18 12 -2 0 25 -6 13 -9 15 -9 5z"/>
<path d="M7186 4837 c3 -10 9 -15 12 -12 3 3 0 11 -7 18 -10 9 -11 8 -5 -6z"/>
<path d="M2780 4835 c0 -5 5 -17 10 -25 5 -8 10 -10 10 -5 0 6 -5 17 -10 25
-5 8 -10 11 -10 5z"/>
<path d="M5700 4831 c0 -5 5 -13 10 -16 6 -3 10 -2 10 4 0 5 -4 13 -10 16 -5
3 -10 2 -10 -4z"/>
<path d="M4211 4805 c0 -5 3 -16 8 -23 7 -11 9 -10 14 3 4 9 3 14 -2 10 -5 -3
-12 1 -14 7 -3 7 -6 9 -6 3z"/>
<path d="M5720 4795 c0 -5 5 -17 10 -25 5 -8 10 -10 10 -5 0 6 -5 17 -10 25
-5 8 -10 11 -10 5z"/>
<path d="M4437 4745 c3 -22 12 -56 19 -75 l14 -35 -6 35 c-4 19 -13 53 -20 75
l-13 40 6 -40z"/>
<path d="M2971 4754 c0 -11 3 -14 6 -6 3 7 2 16 -1 19 -3 4 -6 -2 -5 -13z"/>
<path d="M7220 4755 c0 -5 5 -17 10 -25 5 -8 10 -10 10 -5 0 6 -5 17 -10 25
-5 8 -10 11 -10 5z"/>
<path d="M2981 4714 c0 -11 3 -14 6 -6 3 7 2 16 -1 19 -3 4 -6 -2 -5 -13z"/>
<path d="M7070 4727 c0 -14 31 -69 36 -64 3 3 -4 20 -15 38 -12 19 -21 30 -21
26z"/>
<path d="M5790 4709 c0 -5 5 -7 10 -4 6 3 10 8 10 11 0 2 -4 4 -10 4 -5 0 -10
-5 -10 -11z"/>
<path d="M4261 4694 c0 -11 3 -14 6 -6 3 7 2 16 -1 19 -3 4 -6 -2 -5 -13z"/>
<path d="M7235 4700 c-3 -5 -1 -10 4 -10 6 0 11 5 11 10 0 6 -2 10 -4 10 -3 0
-8 -4 -11 -10z"/>
<path d="M2991 4680 c0 -8 4 -24 9 -35 5 -13 9 -14 9 -5 0 8 -4 24 -9 35 -5
13 -9 14 -9 5z"/>
<path d="M7248 4662 c-5 -16 -11 -20 -25 -16 -15 5 -15 4 -3 -5 18 -12 45 9
38 30 -3 8 -7 5 -10 -9z"/>
<path d="M5773 4646 c4 -10 7 -22 7 -27 0 -5 4 -9 9 -9 12 0 2 38 -12 47 -7 4
-8 0 -4 -11z"/>
<path d="M4281 4633 c0 -4 4 -17 9 -28 8 -19 9 -19 9 2 1 12 -3 25 -9 28 -5 3
-10 3 -9 -2z"/>
<path d="M7261 4625 c1 -21 27 -98 28 -80 0 6 -6 30 -13 55 -8 25 -15 36 -15
25z"/>
<path d="M7120 4625 c0 -5 5 -17 10 -25 5 -8 10 -10 10 -5 0 6 -5 17 -10 25
-5 8 -10 11 -10 5z"/>
<path d="M2886 4600 c7 -28 12 -35 18 -29 2 2 -2 15 -10 29 l-15 25 7 -25z"/>
<path d="M4471 4604 c0 -11 3 -14 6 -6 3 7 2 16 -1 19 -3 4 -6 -2 -5 -13z"/>
<path d="M6067 4613 c-5 -8 366 -6 408 1 11 2 -75 4 -192 5 -116 0 -214 -2
-216 -6z"/>
<path d="M3011 4594 c0 -11 3 -14 6 -6 3 7 2 16 -1 19 -3 4 -6 -2 -5 -13z"/>
<path d="M5993 4603 c9 -2 23 -2 30 0 6 3 -1 5 -18 5 -16 0 -22 -2 -12 -5z"/>
<path d="M6578 4603 c12 -2 30 -2 40 0 9 3 -1 5 -23 4 -22 0 -30 -2 -17 -4z"/>
<path d="M6658 4593 c12 -2 32 -2 45 0 12 2 2 4 -23 4 -25 0 -35 -2 -22 -4z"/>
<path d="M5730 4579 c-20 -5 -17 -7 13 -6 21 0 40 3 42 6 5 9 -25 8 -55 0z"/>
<path d="M5977 4578 c-3 -8 5 -14 20 -14 13 -1 23 -1 21 0 -2 1 -10 7 -19 14
-13 10 -18 10 -22 0z"/>
<path d="M6763 4583 c9 -2 25 -2 35 0 9 3 1 5 -18 5 -19 0 -27 -2 -17 -5z"/>
<path d="M4300 4570 c0 -5 5 -10 11 -10 5 0 7 5 4 10 -3 6 -8 10 -11 10 -2 0
-4 -4 -4 -10z"/>
<path d="M4482 4560 c0 -14 2 -19 5 -12 2 6 2 18 0 25 -3 6 -5 1 -5 -13z"/>
<path d="M6855 4569 c22 -4 51 -8 65 -7 16 0 11 3 -15 9 -22 4 -51 8 -65 7
-16 0 -11 -3 15 -9z"/>
<path d="M7140 4571 c0 -6 4 -13 10 -16 6 -3 7 1 4 9 -7 18 -14 21 -14 7z"/>
<path d="M3021 4555 c-1 -22 19 -99 24 -93 2 1 -3 28 -10 58 -7 30 -14 46 -14
35z"/>
<path d="M5658 4563 c6 -2 18 -2 25 0 6 3 1 5 -13 5 -14 0 -19 -2 -12 -5z"/>
<path d="M2901 4548 c0 -7 4 -22 9 -33 7 -16 8 -14 7 12 -1 18 -5 33 -9 33 -5
0 -8 -6 -7 -12z"/>
<path d="M6393 4548 c7 -4 48 -7 92 -6 90 1 76 5 -32 10 -40 2 -67 0 -60 -4z"/>
<path d="M4311 4534 c0 -11 3 -14 6 -6 3 7 2 16 -1 19 -3 4 -6 -2 -5 -13z"/>
<path d="M5548 4543 c7 -3 16 -2 19 1 4 3 -2 6 -13 5 -11 0 -14 -3 -6 -6z"/>
<path d="M6090 4540 c-13 -9 -13 -10 0 -10 8 0 22 5 30 10 13 9 13 10 0 10 -8
0 -22 -5 -30 -10z"/>
<path d="M6640 4539 c0 -5 28 -9 63 -8 71 1 67 5 -10 12 -29 2 -53 0 -53 -4z"/>
<path d="M6998 4543 c7 -3 16 -2 19 1 4 3 -2 6 -13 5 -11 0 -14 -3 -6 -6z"/>
<path d="M6200 4529 c-14 -4 13 -5 60 -2 47 3 87 8 90 10 8 7 -123 0 -150 -8z"/>
<path d="M7180 4530 c0 -5 5 -10 11 -10 5 0 7 5 4 10 -3 6 -8 10 -11 10 -2 0
-4 -4 -4 -10z"/>
<path d="M6798 4523 c12 -2 30 -2 40 0 9 3 -1 5 -23 4 -22 0 -30 -2 -17 -4z"/>
<path d="M7291 4514 c0 -11 3 -14 6 -6 3 7 2 16 -1 19 -3 4 -6 -2 -5 -13z"/>
<path d="M6108 4513 c6 -2 18 -2 25 0 6 3 1 5 -13 5 -14 0 -19 -2 -12 -5z"/>
<path d="M6883 4513 c9 -2 23 -2 30 0 6 3 -1 5 -18 5 -16 0 -22 -2 -12 -5z"/>
<path d="M2311 4506 c2 -2 33 -6 69 -9 39 -3 55 -2 40 3 -25 8 -117 13 -109 6z"/>
<path d="M4321 4500 c0 -8 4 -22 9 -30 12 -18 12 -2 0 25 -6 13 -9 15 -9 5z"/>
<path d="M5983 4503 c-7 -3 -12 -19 -12 -36 l1 -32 7 30 c5 21 12 29 24 27 9
-2 17 -1 17 1 0 8 -25 14 -37 10z"/>
<path d="M6043 4503 c9 -2 23 -2 30 0 6 3 -1 5 -18 5 -16 0 -22 -2 -12 -5z"/>
<path d="M6953 4503 c9 -2 25 -2 35 0 9 3 1 5 -18 5 -19 0 -27 -2 -17 -5z"/>
<path d="M2498 4483 c6 -2 18 -2 25 0 6 3 1 5 -13 5 -14 0 -19 -2 -12 -5z"/>
<path d="M5478 4483 c7 -3 16 -2 19 1 4 3 -2 6 -13 5 -11 0 -14 -3 -6 -6z"/>
<path d="M5585 4480 c3 -5 8 -10 11 -10 2 0 4 5 4 10 0 6 -5 10 -11 10 -5 0
-7 -4 -4 -10z"/>
<path d="M7305 4480 c-3 -5 -1 -10 4 -10 6 0 11 5 11 10 0 6 -2 10 -4 10 -3 0
-8 -4 -11 -10z"/>
<path d="M7347 4479 c7 -7 15 -10 18 -7 3 3 -2 9 -12 12 -14 6 -15 5 -6 -5z"/>
<path d="M2845 4471 c19 -9 93 -15 84 -7 -2 2 -26 6 -54 10 -34 4 -43 3 -30
-3z"/>
<path d="M7178 4468 c7 -7 12 -23 13 -37 0 -15 3 -20 6 -13 7 19 -6 62 -19 62
-9 0 -9 -3 0 -12z"/>
<path d="M5198 4445 c-71 -25 -124 -55 -98 -55 13 0 13 -2 0 -11 -13 -9 -13
-10 0 -6 8 2 14 10 13 16 -3 13 65 44 78 35 5 -3 9 -1 9 5 0 5 13 12 30 16 16
4 32 11 35 16 4 5 5 9 3 8 -2 0 -33 -11 -70 -24z"/>
<path d="M5728 4453 c7 -3 16 -2 19 1 4 3 -2 6 -13 5 -11 0 -14 -3 -6 -6z"/>
<path d="M5811 4444 c0 -11 3 -14 6 -6 3 7 2 16 -1 19 -3 4 -6 -2 -5 -13z"/>
<path d="M7304 4451 c7 -10 96 -34 103 -27 2 2 -9 7 -26 11 -17 4 -31 11 -31
16 0 5 -12 9 -26 9 -14 0 -23 -4 -20 -9z"/>
<path d="M7465 4445 c17 -8 36 -14 43 -15 6 0 12 -5 12 -11 0 -5 5 -7 10 -4
13 8 52 -4 46 -14 -3 -4 9 -8 25 -8 39 0 25 8 -74 41 -84 28 -110 33 -62 11z"/>
<path d="M5668 4443 c7 -3 16 -2 19 1 4 3 -2 6 -13 5 -11 0 -14 -3 -6 -6z"/>
<path d="M2808 4433 c6 -2 18 -2 25 0 6 3 1 5 -13 5 -14 0 -19 -2 -12 -5z"/>
<path d="M3070 4430 c14 -4 34 -8 45 -8 l20 -1 -20 9 c-11 5 -31 8 -45 8 l-25
0 25 -8z"/>
<path d="M4338 4384 c2 -31 7 -53 10 -49 8 7 3 88 -6 97 -4 4 -5 -18 -4 -48z"/>
<path d="M7290 4422 c0 -5 7 -13 16 -16 10 -4 14 -1 12 6 -5 15 -28 23 -28 10z"/>
<path d="M7446 4423 c-17 -4 -14 -8 14 -19 18 -8 35 -12 37 -10 3 2 -5 7 -16
11 -12 3 -19 11 -16 16 4 5 5 8 3 8 -2 -1 -12 -4 -22 -6z"/>
<path d="M2898 4413 c7 -3 16 -2 19 1 4 3 -2 6 -13 5 -11 0 -14 -3 -6 -6z"/>
<path d="M3185 4404 c28 -7 55 -13 60 -13 17 2 -69 27 -90 27 -11 0 3 -6 30
-14z"/>
<path d="M5578 4413 c6 -2 18 -2 25 0 6 3 1 5 -13 5 -14 0 -19 -2 -12 -5z"/>
<path d="M5823 4370 c0 -30 2 -43 4 -27 2 15 2 39 0 55 -2 15 -4 2 -4 -28z"/>
<path d="M4381 4394 c0 -11 3 -14 6 -6 3 7 2 16 -1 19 -3 4 -6 -2 -5 -13z"/>
<path d="M5515 4400 c-3 -5 -1 -10 4 -10 6 0 11 5 11 10 0 6 -2 10 -4 10 -3 0
-8 -4 -11 -10z"/>
<path d="M7208 4370 c2 -16 6 -30 8 -30 2 0 4 14 4 30 0 17 -4 30 -8 30 -5 0
-7 -13 -4 -30z"/>
<path d="M3255 4380 c-3 -5 1 -10 9 -10 9 0 16 5 16 10 0 6 -4 10 -9 10 -6 0
-13 -4 -16 -10z"/>
<path d="M5060 4380 c-13 -8 -12 -10 3 -10 9 0 17 5 17 10 0 12 -1 12 -20 0z"/>
<path d="M7610 4360 c46 -17 89 -28 95 -26 5 2 -11 9 -37 16 -26 7 -46 15 -44
19 2 3 -6 6 -17 7 -12 0 -35 4 -52 7 -16 4 8 -6 55 -23z"/>
<path d="M3306 4371 c5 -5 20 -12 34 -15 l25 -7 -25 15 c-28 17 -50 21 -34 7z"/>
<path d="M5401 4364 c-8 -9 -22 -13 -34 -10 -14 3 -17 2 -9 -6 12 -12 72 7 72
23 0 14 -13 10 -29 -7z"/>
<path d="M7321 4364 c0 -11 3 -14 6 -6 3 7 2 16 -1 19 -3 4 -6 -2 -5 -13z"/>
<path d="M3051 4361 c-8 -5 -9 -11 -3 -15 5 -3 12 1 16 9 6 17 6 18 -13 6z"/>
<path d="M3145 4344 c38 -13 74 -22 80 -20 5 2 2 5 -7 5 -10 1 -18 5 -18 11 0
5 -7 6 -17 3 -11 -5 -14 -3 -8 6 6 10 2 11 -15 6 -12 -4 -20 -3 -17 1 3 5 -11
10 -32 10 -31 2 -26 -2 34 -22z"/>
<path d="M7710 4356 c0 -2 7 -7 16 -10 8 -3 12 -2 9 4 -6 10 -25 14 -25 6z"/>
<path d="M3398 4333 c7 -3 16 -2 19 1 4 3 -2 6 -13 5 -11 0 -14 -3 -6 -6z"/>
<path d="M5311 4326 c-10 -12 -8 -13 9 -9 25 7 37 23 17 23 -8 0 -20 -6 -26
-14z"/>
<path d="M7241 4324 c0 -11 3 -14 6 -6 3 7 2 16 -1 19 -3 4 -6 -2 -5 -13z"/>
<path d="M4496 4317 c3 -10 9 -15 12 -12 3 3 0 11 -7 18 -10 9 -11 8 -5 -6z"/>
<path d="M7287 4309 c4 -13 8 -18 11 -10 2 7 -1 18 -6 23 -8 8 -9 4 -5 -13z"/>
<path d="M7325 4319 c-4 -6 -5 -12 -2 -15 2 -3 7 2 10 11 7 17 1 20 -8 4z"/>
<path d="M2963 4280 c0 -25 2 -35 4 -22 2 12 2 32 0 45 -2 12 -4 2 -4 -23z"/>
<path d="M3062 4300 c0 -14 2 -19 5 -12 2 6 2 18 0 25 -3 6 -5 1 -5 -13z"/>
<path d="M3380 4310 c10 -6 11 -10 3 -10 -23 0 -14 -19 17 -35 17 -9 30 -13
30 -11 0 3 -12 12 -27 20 -25 13 -26 15 -10 22 15 5 16 9 5 15 -7 5 -17 9 -23
9 -5 0 -3 -5 5 -10z"/>
<path d="M7221 4310 c0 -8 4 -24 9 -35 5 -13 9 -14 9 -5 0 8 -4 24 -9 35 -5
13 -9 14 -9 5z"/>
<path d="M3495 4300 c4 -6 11 -8 16 -5 14 9 11 15 -7 15 -8 0 -12 -5 -9 -10z"/>
<path d="M5216 4301 c-4 -6 -2 -11 4 -11 6 0 8 -4 5 -10 -8 -14 -3 -13 33 6
39 19 42 27 5 13 -19 -7 -28 -6 -33 2 -6 8 -9 8 -14 0z"/>
<path d="M5822 4265 c-1 -27 -4 -72 -6 -100 -2 -27 -1 -37 1 -20 3 16 8 32 11
35 4 3 4 34 1 70 -5 63 -6 63 -7 15z"/>
<path d="M5921 4294 c0 -11 3 -14 6 -6 3 7 2 16 -1 19 -3 4 -6 -2 -5 -13z"/>
<path d="M3422 4291 c-11 -7 -11 -9 0 -14 9 -3 15 1 15 9 0 8 -1 14 -1 14 -1
0 -7 -4 -14 -9z"/>
<path d="M3455 4290 c-3 -5 -1 -10 4 -10 6 0 11 5 11 10 0 6 -2 10 -4 10 -3 0
-8 -4 -11 -10z"/>
<path d="M3545 4290 c11 -5 27 -9 35 -9 9 0 8 4 -5 9 -11 5 -27 9 -35 9 -9 0
-8 -4 5 -9z"/>
<path d="M5981 4284 c0 -11 3 -14 6 -6 3 7 2 16 -1 19 -3 4 -6 -2 -5 -13z"/>
<path d="M3340 4276 c0 -2 7 -7 16 -10 8 -3 12 -2 9 4 -6 10 -25 14 -25 6z"/>
<path d="M3485 4270 c-3 -5 -1 -10 4 -10 6 0 11 5 11 10 0 6 -2 10 -4 10 -3 0
-8 -4 -11 -10z"/>
<path d="M3595 4269 c-4 -6 -4 -13 -1 -16 3 -4 6 -1 6 5 0 6 8 13 18 15 15 4
15 5 0 6 -9 0 -20 -4 -23 -10z"/>
<path d="M4765 4270 c-13 -6 -15 -9 -5 -9 8 0 22 4 30 9 18 12 2 12 -25 0z"/>
<path d="M3645 4260 c3 -5 10 -10 16 -10 5 0 9 5 9 10 0 6 -7 10 -16 10 -8 0
-12 -4 -9 -10z"/>
<path d="M5178 4263 c6 -2 18 -2 25 0 6 3 1 5 -13 5 -14 0 -19 -2 -12 -5z"/>
<path d="M3688 4253 c6 -2 18 -2 25 0 6 3 1 5 -13 5 -14 0 -19 -2 -12 -5z"/>
<path d="M4352 4235 c0 -16 2 -22 5 -12 2 9 2 23 0 30 -3 6 -5 -1 -5 -18z"/>
<path d="M4695 4250 c-13 -6 -15 -9 -5 -9 8 0 22 4 30 9 18 12 2 12 -25 0z"/>
<path d="M6391 4153 c-7 -60 -14 -119 -17 -133 -4 -20 -27 -37 -119 -85 -63
-33 -115 -62 -115 -65 0 -3 53 -30 119 -61 l118 -56 12 -67 c6 -36 16 -96 22
-133 l12 -67 93 100 93 100 126 -19 c70 -10 129 -16 132 -14 2 3 -23 56 -58
118 l-62 112 56 113 c32 63 57 118 57 122 0 5 -59 -3 -130 -17 l-130 -25 -93
92 c-51 51 -95 92 -98 92 -3 0 -11 -48 -18 -107z"/>
<path d="M3755 4240 c17 -4 39 -8 50 -8 16 0 15 2 -5 8 -14 4 -36 8 -50 8 -22
0 -22 -1 5 -8z"/>
<path d="M4620 4236 c0 -9 30 -14 35 -6 4 6 -3 10 -14 10 -12 0 -21 -2 -21 -4z"/>
<path d="M7342 4215 c0 -16 2 -22 5 -12 2 9 2 23 0 30 -3 6 -5 -1 -5 -18z"/>
<path d="M3496 4217 c3 -10 9 -15 12 -12 3 3 0 11 -7 18 -10 9 -11 8 -5 -6z"/>
<path d="M3858 4220 c31 -13 112 -20 112 -9 0 5 -12 9 -27 9 -16 0 -46 3 -68
5 -33 5 -36 4 -17 -5z"/>
<path d="M4550 4220 c-11 -7 -5 -8 20 -4 43 8 51 14 19 14 -13 0 -31 -5 -39
-10z"/>
<path d="M7243 4190 c0 -25 2 -35 4 -22 2 12 2 32 0 45 -2 12 -4 2 -4 -23z"/>
<path d="M7281 4214 c0 -11 3 -14 6 -6 3 7 2 16 -1 19 -3 4 -6 -2 -5 -13z"/>
<path d="M2974 4085 c0 -71 1 -99 3 -62 2 37 2 96 0 130 -2 34 -3 4 -3 -68z"/>
<path d="M3528 4198 c5 -5 16 -8 23 -6 8 3 3 7 -10 11 -17 4 -21 3 -13 -5z"/>
<path d="M4001 4206 c2 -2 26 -6 53 -9 30 -3 43 -1 35 4 -13 8 -97 13 -88 5z"/>
<path d="M4988 4203 c7 -3 16 -2 19 1 4 3 -2 6 -13 5 -11 0 -14 -3 -6 -6z"/>
<path d="M4168 4193 c34 -2 88 -2 120 0 31 2 3 3 -63 3 -66 0 -92 -1 -57 -3z"/>
<path d="M3600 4175 c48 -18 72 -18 36 0 -15 8 -38 15 -50 14 -15 0 -12 -4 14
-14z"/>
<path d="M4918 4183 c7 -3 16 -2 19 1 4 3 -2 6 -13 5 -11 0 -14 -3 -6 -6z"/>
<path d="M4088 4173 c7 -3 16 -2 19 1 4 3 -2 6 -13 5 -11 0 -14 -3 -6 -6z"/>
<path d="M4325 4170 c-3 -5 -1 -10 4 -10 6 0 11 5 11 10 0 6 -2 10 -4 10 -3 0
-8 -4 -11 -10z"/>
<path d="M4838 4163 c7 -3 16 -2 19 1 4 3 -2 6 -13 5 -11 0 -14 -3 -6 -6z"/>
<path d="M5971 4170 c-1 -3 -3 -24 -5 -48 -1 -29 1 -38 6 -27 5 8 7 30 5 48
-2 17 -5 30 -6 27z"/>
<path d="M3022 4140 c0 -14 2 -19 5 -12 2 6 2 18 0 25 -3 6 -5 1 -5 -13z"/>
<path d="M3695 4151 c11 -5 40 -11 65 -15 l45 -6 -45 15 c-25 8 -54 14 -65 14
l-20 0 20 -8z"/>
<path d="M4735 4150 c-4 -6 3 -10 14 -10 25 0 27 6 6 13 -8 4 -17 2 -20 -3z"/>
<path d="M4788 4153 c6 -2 18 -2 25 0 6 3 1 5 -13 5 -14 0 -19 -2 -12 -5z"/>
<path d="M3928 4143 c7 -3 16 -2 19 1 4 3 -2 6 -13 5 -11 0 -14 -3 -6 -6z"/>
<path d="M4550 4133 c0 -6 -10 -14 -22 -16 -13 -2 -3 -5 22 -5 25 0 38 2 30 5
-8 3 -18 11 -22 17 -6 8 -8 8 -8 -1z"/>
<path d="M4683 4133 c9 -2 23 -2 30 0 6 3 -1 5 -18 5 -16 0 -22 -2 -12 -5z"/>
<path d="M3838 4123 c7 -3 16 -2 19 1 4 3 -2 6 -13 5 -11 0 -14 -3 -6 -6z"/>
<path d="M3895 4120 c-28 -7 -27 -8 13 -9 27 -1 41 3 37 9 -7 11 -7 11 -50 0z"/>
<path d="M3980 4114 c-24 -13 -24 -14 -4 -14 12 0 24 7 28 15 3 8 4 15 3 14
-1 -1 -13 -7 -27 -15z"/>
<path d="M4613 4123 c9 -2 25 -2 35 0 9 3 1 5 -18 5 -19 0 -27 -2 -17 -5z"/>
<path d="M7254 4005 c0 -71 1 -99 3 -62 2 37 2 96 0 130 -2 34 -3 4 -3 -68z"/>
<path d="M4050 4099 c45 -8 257 -12 249 -5 -2 2 -69 5 -149 8 -82 3 -125 1
-100 -3z"/>
<path d="M4315 4100 c-3 -6 1 -7 9 -4 18 7 21 14 7 14 -6 0 -13 -4 -16 -10z"/>
<path d="M4487 4099 c7 -7 15 -10 18 -7 3 3 -2 9 -12 12 -14 6 -15 5 -6 -5z"/>
<path d="M5796 4052 c-5 -24 -5 -46 -2 -49 3 -4 6 5 6 18 0 19 2 21 10 9 9
-13 10 -13 9 0 -1 8 -4 26 -8 40 -7 22 -8 21 -15 -18z"/>
<path d="M7353 4045 c0 -27 2 -38 4 -22 2 15 2 37 0 50 -2 12 -4 0 -4 -28z"/>
<path d="M4336 4065 c-3 -9 -6 -29 -5 -43 1 -22 3 -19 10 12 10 40 6 60 -5 31z"/>
<path d="M4906 4028 c-3 -13 -10 -71 -17 -131 l-12 -107 -119 -62 c-65 -34
-115 -64 -111 -68 4 -3 55 -28 113 -54 58 -27 110 -54 116 -62 6 -8 19 -62 28
-121 9 -60 19 -115 22 -123 4 -10 33 15 97 84 l92 98 130 -20 c71 -12 131 -20
132 -18 2 2 -26 55 -62 119 l-66 116 61 120 c33 67 58 121 55 121 -3 0 -62
-11 -131 -25 -69 -14 -127 -25 -130 -25 -2 0 -44 41 -93 90 -49 50 -92 90 -95
90 -3 0 -8 -10 -10 -22z"/>
<path d="M3001 4014 c0 -11 3 -14 6 -6 3 7 2 16 -1 19 -3 4 -6 -2 -5 -13z"/>
<path d="M4491 3984 c0 -11 3 -14 6 -6 3 7 2 16 -1 19 -3 4 -6 -2 -5 -13z"/>
<path d="M5763 3912 c-12 -43 -24 -86 -27 -97 -4 -11 2 -2 12 20 19 41 47 143
41 150 -2 2 -14 -31 -26 -73z"/>
<path d="M3376 3943 c-2 -10 -10 -69 -17 -131 l-13 -113 -120 -64 -120 -64 79
-36 c44 -20 99 -45 122 -55 47 -21 46 -18 69 -165 9 -60 19 -112 22 -115 2 -3
45 39 96 92 l91 98 129 -20 c72 -11 131 -18 133 -16 2 2 -26 55 -62 119 l-65
116 57 115 c31 63 55 117 53 120 -3 2 -61 -7 -129 -20 l-125 -23 -97 89 c-78
72 -99 87 -103 73z"/>
<path d="M4442 3930 c0 -19 2 -27 5 -17 2 9 2 25 0 35 -3 9 -5 1 -5 -18z"/>
<path d="M4482 3935 c0 -16 2 -22 5 -12 2 9 2 23 0 30 -3 6 -5 -1 -5 -18z"/>
<path d="M2959 3895 c-5 -50 -4 -63 7 -53 3 3 4 28 2 54 l-3 49 -6 -50z"/>
<path d="M7352 3900 c0 -14 2 -19 5 -12 2 6 2 18 0 25 -3 6 -5 1 -5 -13z"/>
<path d="M4305 3889 c-4 -6 -5 -12 -2 -15 2 -3 7 2 10 11 7 17 1 20 -8 4z"/>
<path d="M4464 3874 c-3 -16 -10 -46 -16 -68 -5 -21 -7 -40 -5 -42 2 -3 12 25
21 62 9 37 15 69 12 71 -3 3 -8 -8 -12 -23z"/>
<path d="M3057 3883 c-4 -3 -7 -11 -7 -17 0 -6 5 -5 12 2 6 6 9 14 7 17 -3 3
-9 2 -12 -2z"/>
<path d="M4291 3834 c0 -11 3 -14 6 -6 3 7 2 16 -1 19 -3 4 -6 -2 -5 -13z"/>
<path d="M7242 3820 c0 -19 2 -27 5 -17 2 9 2 25 0 35 -3 9 -5 1 -5 -18z"/>
<path d="M2951 3814 c0 -11 3 -14 6 -6 3 7 2 16 -1 19 -3 4 -6 -2 -5 -13z"/>
<path d="M3051 3804 c0 -11 3 -14 6 -6 3 7 2 16 -1 19 -3 4 -6 -2 -5 -13z"/>
<path d="M5901 3804 c0 -11 3 -14 6 -6 3 7 2 16 -1 19 -3 4 -6 -2 -5 -13z"/>
<path d="M5846 3783 c-6 -14 -5 -15 5 -6 7 7 10 15 7 18 -3 3 -9 -2 -12 -12z"/>
<path d="M7334 3776 c-9 -20 -9 -23 2 -19 8 3 14 14 14 24 0 25 -3 24 -16 -5z"/>
<path d="M4271 3774 c0 -11 3 -14 6 -6 3 7 2 16 -1 19 -3 4 -6 -2 -5 -13z"/>
<path d="M5720 3783 c0 -6 8 -17 18 -24 16 -13 16 -13 2 6 -8 11 -16 22 -17
24 -2 2 -3 0 -3 -6z"/>
<path d="M2941 3764 c0 -11 3 -14 6 -6 3 7 2 16 -1 19 -3 4 -6 -2 -5 -13z"/>
<path d="M5886 3763 c-6 -14 -5 -15 5 -6 7 7 10 15 7 18 -3 3 -9 -2 -12 -12z"/>
<path d="M3042 3740 c0 -14 2 -19 5 -12 2 6 2 18 0 25 -3 6 -5 1 -5 -13z"/>
<path d="M7279 3728 c4 -28 6 -29 9 -9 2 13 0 27 -5 32 -6 6 -7 -3 -4 -23z"/>
<path d="M4411 3699 c-12 -29 -20 -54 -17 -56 2 -2 13 19 25 48 12 28 20 53
18 55 -2 3 -14 -19 -26 -47z"/>
<path d="M7232 3725 c0 -16 2 -22 5 -12 2 9 2 23 0 30 -3 6 -5 -1 -5 -18z"/>
<path d="M5850 3735 c0 -5 4 -16 9 -23 6 -11 10 -10 15 4 3 9 4 19 1 22 -3 3
-5 -1 -5 -9 0 -11 -2 -11 -10 1 -5 8 -10 11 -10 5z"/>
<path d="M2931 3714 c0 -11 3 -14 6 -6 3 7 2 16 -1 19 -3 4 -6 -2 -5 -13z"/>
<path d="M3030 3704 c-1 -5 -14 -56 -29 -114 -16 -58 -32 -116 -35 -130 -4
-14 0 -10 9 10 21 45 68 230 61 238 -3 3 -6 1 -6 -4z"/>
<path d="M5844 3693 c4 -7 0 -26 -9 -43 -8 -16 -13 -30 -11 -30 3 0 13 14 22
31 12 25 13 34 3 43 -9 8 -10 8 -5 -1z"/>
<path d="M7222 3670 c0 -14 2 -19 5 -12 2 6 2 18 0 25 -3 6 -5 1 -5 -13z"/>
<path d="M7246 3677 c3 -10 9 -15 12 -12 3 3 0 11 -7 18 -10 9 -11 8 -5 -6z"/>
<path d="M2916 3654 c-4 -14 -5 -29 -2 -31 3 -3 8 7 12 21 3 15 4 29 1 32 -2
3 -8 -7 -11 -22z"/>
<path d="M4236 3663 c-6 -14 -5 -15 5 -6 7 7 10 15 7 18 -3 3 -9 -2 -12 -12z"/>
<path d="M7322 3655 c0 -16 2 -22 5 -12 2 9 2 23 0 30 -3 6 -5 -1 -5 -18z"/>
<path d="M4212 3615 c-17 -37 -14 -45 4 -12 9 16 14 31 11 33 -2 2 -9 -7 -15
-21z"/>
<path d="M5657 3615 c-4 -8 -3 -16 1 -19 4 -3 9 4 9 15 2 23 -3 25 -10 4z"/>
<path d="M7312 3600 c0 -14 2 -19 5 -12 2 6 2 18 0 25 -3 6 -5 1 -5 -13z"/>
<path d="M2888 3549 c-9 -35 -15 -65 -13 -67 6 -6 36 98 33 114 -2 9 -10 -12
-20 -47z"/>
<path d="M2920 3599 c0 -5 5 -7 10 -4 6 3 10 8 10 11 0 2 -4 4 -10 4 -5 0 -10
-5 -10 -11z"/>
<path d="M5801 3589 c-7 -12 -10 -23 -8 -26 3 -3 11 5 17 17 15 28 8 35 -9 9z"/>
<path d="M4360 3579 c-7 -11 -10 -23 -7 -25 2 -2 9 7 15 21 14 30 7 33 -8 4z"/>
<path d="M7196 3554 c-4 -20 -5 -38 -3 -40 3 -3 8 11 11 32 4 20 5 38 3 40 -3
3 -8 -11 -11 -32z"/>
<path d="M5622 3545 c-12 -19 -20 -35 -17 -35 7 0 47 61 42 66 -2 3 -14 -11
-25 -31z"/>
<path d="M5766 3563 c-6 -14 -5 -15 5 -6 7 7 10 15 7 18 -3 3 -9 -2 -12 -12z"/>
<path d="M7301 3554 c0 -11 3 -14 6 -6 3 7 2 16 -1 19 -3 4 -6 -2 -5 -13z"/>
<path d="M4176 3533 c-6 -14 -5 -15 5 -6 7 7 10 15 7 18 -3 3 -9 -2 -12 -12z"/>
<path d="M4336 3523 c-6 -14 -5 -15 5 -6 7 7 10 15 7 18 -3 3 -9 -2 -12 -12z"/>
<path d="M5761 3514 c0 -11 3 -14 6 -6 3 7 2 16 -1 19 -3 4 -6 -2 -5 -13z"/>
<path d="M7280 3484 c-7 -27 -16 -53 -19 -59 -3 -5 -6 -12 -6 -15 -3 -22 -31
-89 -46 -109 -18 -23 -17 -47 2 -35 5 3 6 10 3 16 -4 6 -1 13 5 17 14 9 84
207 79 223 -3 7 -10 -10 -18 -38z"/>
<path d="M4259 3478 c4 -28 6 -29 9 -9 2 13 0 27 -5 32 -6 6 -7 -3 -4 -23z"/>
<path d="M5580 3477 c-32 -47 -35 -53 -19 -40 8 6 17 11 21 10 3 -1 10 2 15 7
5 5 3 6 -4 2 -16 -9 -17 6 -1 22 6 6 10 14 7 16 -3 3 -11 -5 -19 -17z"/>
<path d="M4139 3461 c-14 -24 -14 -28 0 -41 13 -13 14 -12 8 4 -4 9 -2 27 4
38 16 31 6 30 -12 -1z"/>
<path d="M5714 3477 c3 -10 6 -21 6 -24 0 -3 7 0 15 7 8 7 15 18 15 24 0 6 -5
4 -10 -4 -9 -13 -11 -13 -21 0 -9 13 -10 12 -5 -3z"/>
<path d="M2857 3451 c-3 -13 -1 -18 9 -14 7 2 10 11 7 19 -7 19 -10 18 -16 -5z"/>
<path d="M7171 3454 c0 -11 3 -14 6 -6 3 7 2 16 -1 19 -3 4 -6 -2 -5 -13z"/>
<path d="M4286 3443 c-6 -14 -5 -15 5 -6 7 7 10 15 7 18 -3 3 -9 -2 -12 -12z"/>
<path d="M2940 3431 c0 -5 5 -13 10 -16 6 -3 10 -2 10 4 0 5 -4 13 -10 16 -5
3 -10 2 -10 -4z"/>
<path d="M4250 3436 c0 -2 8 -10 18 -17 15 -13 16 -12 3 4 -13 16 -21 21 -21
13z"/>
<path d="M5686 3428 c3 -5 10 -6 15 -3 13 9 11 12 -6 12 -8 0 -12 -4 -9 -9z"/>
<path d="M7155 3410 c-4 -12 -5 -24 -2 -27 3 -2 8 5 12 17 4 12 5 24 2 27 -3
2 -8 -5 -12 -17z"/>
<path d="M4092 3390 c-30 -40 -28 -50 3 -14 22 26 31 44 22 44 -2 0 -13 -13
-25 -30z"/>
<path d="M5497 3350 c-21 -39 -35 -70 -30 -70 4 0 14 15 22 33 8 17 17 34 20
37 12 10 40 70 33 70 -4 0 -24 -32 -45 -70z"/>
<path d="M4241 3394 c0 -11 3 -14 6 -6 3 7 2 16 -1 19 -3 4 -6 -2 -5 -13z"/>
<path d="M5651 3381 c-5 -14 -19 -36 -31 -49 -12 -13 -20 -25 -17 -28 2 -2 22
20 45 49 24 32 35 54 26 54 -7 0 -17 -12 -23 -26z"/>
<path d="M7196 3393 c-6 -14 -5 -15 5 -6 7 7 10 15 7 18 -3 3 -9 -2 -12 -12z"/>
<path d="M2930 3385 c0 -8 2 -15 4 -15 2 0 6 7 10 15 3 8 1 15 -4 15 -6 0 -10
-7 -10 -15z"/>
<path d="M5614 3382 c4 -7 2 -21 -5 -30 -12 -15 -11 -15 6 0 16 15 17 20 6 30
-11 11 -13 10 -7 0z"/>
<path d="M2837 3373 c-4 -3 -7 -11 -7 -17 0 -6 5 -5 12 2 6 6 9 14 7 17 -3 3
-9 2 -12 -2z"/>
<path d="M2885 3361 c-3 -5 -2 -12 3 -15 5 -3 9 1 9 9 0 17 -3 19 -12 6z"/>
<path d="M4178 3347 c15 -18 7 -41 -10 -31 -7 4 -8 2 -4 -5 4 -6 0 -24 -9 -39
-15 -25 -15 -25 10 3 40 46 58 75 51 82 -3 3 -6 1 -6 -6 0 -9 -5 -9 -22 0 -21
11 -22 11 -10 -4z"/>
<path d="M4049 3323 c-13 -16 -12 -17 4 -4 16 13 21 21 13 21 -2 0 -10 -8 -17
-17z"/>
<path d="M2896 3313 c-6 -14 -5 -15 5 -6 7 7 10 15 7 18 -3 3 -9 -2 -12 -12z"/>
<path d="M4060 3306 c0 -4 8 -18 18 -30 16 -21 19 -21 32 -8 13 14 12 15 -3 9
-11 -4 -22 1 -32 16 -8 12 -15 18 -15 13z"/>
<path d="M4021 3273 c-9 -23 -9 -25 1 -12 7 9 20 14 28 11 13 -5 13 -3 1 11
-17 21 -16 22 -30 -10z"/>
<path d="M2830 3286 c0 -2 7 -7 16 -10 8 -3 12 -2 9 4 -6 10 -25 14 -25 6z"/>
<path d="M2872 3285 c4 -4 3 -14 -4 -22 -6 -7 -9 -15 -7 -18 3 -2 10 4 17 15
9 15 9 21 -1 26 -6 4 -9 4 -5 -1z"/>
<path d="M5290 3260 c0 -5 9 -10 21 -10 11 0 17 5 14 10 -3 6 -13 10 -21 10
-8 0 -14 -4 -14 -10z"/>
<path d="M5968 3263 c12 -2 30 -2 40 0 9 3 -1 5 -23 4 -22 0 -30 -2 -17 -4z"/>
<path d="M7091 3227 c-23 -48 -26 -61 -11 -52 6 3 10 15 10 26 0 13 4 18 12
13 8 -5 9 -2 5 10 -4 10 -1 19 8 22 16 7 21 24 6 24 -5 0 -19 -19 -30 -43z"/>
<path d="M5223 3253 c9 -2 23 -2 30 0 6 3 -1 5 -18 5 -16 0 -22 -2 -12 -5z"/>
<path d="M6068 3253 c7 -3 16 -2 19 1 4 3 -2 6 -13 5 -11 0 -14 -3 -6 -6z"/>
<path d="M4095 3218 c-15 -31 -15 -31 0 -13 9 11 20 19 25 18 5 -2 7 4 4 12
-8 21 -11 19 -29 -17z"/>
<path d="M5108 3238 c-27 -6 -48 -14 -48 -18 0 -4 21 -2 48 5 26 7 56 15 67
18 l20 5 -20 0 c-11 0 -41 -5 -67 -10z"/>
<path d="M6138 3243 c7 -3 16 -2 19 1 4 3 -2 6 -13 5 -11 0 -14 -3 -6 -6z"/>
<path d="M3971 3181 c-17 -34 -27 -62 -21 -62 35 -5 44 -2 47 11 3 9 1 11 -4
5 -11 -14 -33 -17 -33 -6 0 6 11 31 25 57 14 26 23 49 21 52 -3 2 -19 -23 -35
-57z"/>
<path d="M6204 3229 c10 -6 44 -13 75 -14 47 -3 50 -2 21 5 -19 4 -53 11 -75
14 -33 5 -37 4 -21 -5z"/>
<path d="M7145 3230 c3 -5 8 -10 11 -10 2 0 4 5 4 10 0 6 -5 10 -11 10 -5 0
-7 -4 -4 -10z"/>
<path d="M5288 3223 c7 -3 16 -2 19 1 4 3 -2 6 -13 5 -11 0 -14 -3 -6 -6z"/>
<path d="M5005 3210 c-13 -5 -14 -9 -5 -9 8 0 24 4 35 9 13 5 14 9 5 9 -8 0
-24 -4 -35 -9z"/>
<path d="M6048 3213 c7 -3 16 -2 19 1 4 3 -2 6 -13 5 -11 0 -14 -3 -6 -6z"/>
<path d="M5883 3203 c9 -2 23 -2 30 0 6 3 -1 5 -18 5 -16 0 -22 -2 -12 -5z"/>
<path d="M6348 3203 c7 -3 16 -2 19 1 4 3 -2 6 -13 5 -11 0 -14 -3 -6 -6z"/>
<path d="M2835 3189 c-4 -6 -5 -12 -2 -15 2 -3 7 2 10 11 7 17 1 20 -8 4z"/>
<path d="M4925 3190 c-13 -5 -14 -9 -5 -9 8 0 24 4 35 9 13 5 14 9 5 9 -8 0
-24 -4 -35 -9z"/>
<path d="M5520 3190 c8 -5 22 -9 30 -9 10 0 8 3 -5 9 -27 12 -43 12 -25 0z"/>
<path d="M5598 3193 c7 -3 16 -2 19 1 4 3 -2 6 -13 5 -11 0 -14 -3 -6 -6z"/>
<path d="M6093 3193 c9 -2 23 -2 30 0 6 3 -1 5 -18 5 -16 0 -22 -2 -12 -5z"/>
<path d="M6388 3193 c7 -3 16 -2 19 1 4 3 -2 6 -13 5 -11 0 -14 -3 -6 -6z"/>
<path d="M7130 3193 c0 -5 5 -15 10 -23 7 -12 9 -10 7 8 -1 19 -17 33 -17 15z"/>
<path d="M5270 3179 c0 -5 9 -9 20 -9 11 0 20 2 20 4 0 2 -9 6 -20 9 -11 3
-20 1 -20 -4z"/>
<path d="M6230 3180 c-6 -4 10 -10 36 -14 26 -3 49 -5 50 -3 7 7 -76 23 -86
17z"/>
<path d="M6428 3183 c6 -2 18 -2 25 0 6 3 1 5 -13 5 -14 0 -19 -2 -12 -5z"/>
<path d="M4866 3171 c-19 -7 -19 -8 2 -13 12 -4 20 -2 17 2 -3 5 1 11 7 13 7
3 9 5 3 6 -5 0 -19 -4 -29 -8z"/>
<path d="M5425 3170 c-3 -5 -2 -18 4 -27 7 -14 9 -12 8 10 -2 30 -3 31 -12 17z"/>
<path d="M5337 3160 c-20 -4 -41 -10 -45 -14 -9 -10 68 4 88 15 17 10 10 10
-43 -1z"/>
<path d="M6519 3161 c7 -5 9 -11 5 -13 -5 -3 -3 -3 4 -1 8 1 21 3 30 4 14 0
13 2 -3 9 -11 5 -27 9 -35 9 -12 1 -13 -1 -1 -8z"/>
<path d="M6351 3155 c3 -2 36 -11 75 -20 38 -8 80 -17 94 -20 l25 -6 -25 11
c-14 6 -56 18 -93 26 -75 15 -83 16 -76 9z"/>
<path d="M4775 3140 c-13 -6 -15 -9 -5 -9 8 0 22 4 30 9 18 12 2 12 -25 0z"/>
<path d="M6588 3143 c7 -3 16 -2 19 1 4 3 -2 6 -13 5 -11 0 -14 -3 -6 -6z"/>
<path d="M7050 3134 c0 -10 5 -26 10 -34 8 -11 9 -7 4 15 -8 37 -14 45 -14 19z"/>
<path d="M7090 3135 c0 -5 4 -16 8 -23 6 -9 13 -7 28 10 17 20 17 21 1 8 -16
-12 -20 -12 -28 1 -5 8 -9 10 -9 4z"/>
<path d="M4016 3122 c-2 -4 -1 -14 4 -22 7 -11 9 -9 7 8 -1 24 -3 26 -11 14z"/>
<path d="M4918 3123 c7 -3 16 -2 19 1 4 3 -2 6 -13 5 -11 0 -14 -3 -6 -6z"/>
<path d="M5185 3120 c-25 -11 1 -11 35 0 20 6 21 8 5 8 -11 0 -29 -3 -40 -8z"/>
<path d="M5379 3104 c-5 -15 -8 -29 -5 -31 2 -2 8 10 14 26 13 38 5 41 -9 5z"/>
<path d="M6550 3117 c0 -10 8 -17 18 -17 9 0 13 4 7 8 -5 4 -13 11 -17 16 -5
5 -8 2 -8 -7z"/>
<path d="M5486 3103 c-6 -14 -5 -15 5 -6 7 7 10 15 7 18 -3 3 -9 -2 -12 -12z"/>
<path d="M3937 3103 c-4 -3 -7 -13 -7 -22 1 -13 3 -13 11 2 11 19 8 33 -4 20z"/>
<path d="M5138 3103 c7 -3 16 -2 19 1 4 3 -2 6 -13 5 -11 0 -14 -3 -6 -6z"/>
<path d="M6715 3101 c-3 -5 -2 -12 3 -15 5 -3 9 1 9 9 0 17 -3 19 -12 6z"/>
<path d="M4660 3090 c-9 -6 -10 -10 -3 -10 6 0 15 5 18 10 8 12 4 12 -15 0z"/>
<path d="M5098 3093 c7 -3 16 -2 19 1 4 3 -2 6 -13 5 -11 0 -14 -3 -6 -6z"/>
<path d="M6598 3093 c7 -3 16 -2 19 1 4 3 -2 6 -13 5 -11 0 -14 -3 -6 -6z"/>
<path d="M7030 3089 c0 -5 5 -7 10 -4 6 3 10 8 10 11 0 2 -4 4 -10 4 -5 0 -10
-5 -10 -11z"/>
<path d="M7083 3085 c0 -8 4 -12 9 -9 5 3 6 10 3 15 -9 13 -12 11 -12 -6z"/>
<path d="M4028 3068 c-16 -27 -38 -76 -38 -86 0 -4 14 17 30 47 30 54 36 83 8
39z"/>
<path d="M6658 3083 c6 -2 18 -2 25 0 6 3 1 5 -13 5 -14 0 -19 -2 -12 -5z"/>
<path d="M5460 3056 c-15 -39 -12 -46 6 -13 9 16 13 31 10 34 -3 3 -10 -6 -16
-21z"/>
<path d="M2955 3059 c-4 -6 -5 -12 -2 -15 2 -3 7 2 10 11 7 17 1 20 -8 4z"/>
<path d="M4584 3055 c-10 -8 -14 -15 -8 -15 6 0 17 7 24 15 16 19 9 19 -16 0z"/>
<path d="M6830 3060 c8 -5 20 -10 25 -10 6 0 3 5 -5 10 -8 5 -19 10 -25 10 -5
0 -3 -5 5 -10z"/>
<path d="M7018 3047 c-3 -19 -2 -25 4 -19 6 6 8 18 6 28 -3 14 -5 12 -10 -9z"/>
<path d="M3906 3045 c-3 -9 -6 -22 -5 -28 0 -7 5 -1 10 12 5 13 8 26 5 28 -2
2 -6 -3 -10 -12z"/>
<path d="M2970 3040 c0 -5 5 -10 10 -10 6 0 10 5 10 10 0 6 -4 10 -10 10 -5 0
-10 -4 -10 -10z"/>
<path d="M4862 3025 c-7 -8 -9 -15 -4 -15 5 0 15 7 22 15 16 19 -1 19 -18 0z"/>
<path d="M3102 3016 c10 -7 15 -16 12 -19 -3 -3 3 -3 15 0 28 7 27 9 -11 22
-28 9 -30 9 -16 -3z"/>
<path d="M4490 3003 c-25 -13 -36 -21 -25 -17 11 3 29 8 40 11 19 4 19 4 2
-10 -16 -13 -16 -15 -1 -21 8 -3 23 -1 32 4 14 9 12 10 -8 4 -22 -6 -23 -5
-11 10 7 9 10 16 5 16 -5 0 -2 4 6 10 8 5 12 11 10 14 -3 2 -25 -7 -50 -21z"/>
<path d="M5347 3023 c-12 -12 -7 -30 14 -54 l20 -24 -16 26 c-8 14 -13 34 -9
43 6 17 2 21 -9 9z"/>
<path d="M6929 3011 c11 -7 11 -10 0 -15 -8 -3 -3 -3 10 0 16 4 21 2 17 -5 -5
-7 -1 -8 10 -4 13 5 15 3 9 -7 -5 -9 -4 -11 3 -6 17 10 15 14 -18 31 -31 16
-54 21 -31 6z"/>
<path d="M3026 2997 c3 -10 9 -15 12 -12 3 3 0 11 -7 18 -10 9 -11 8 -5 -6z"/>
<path d="M5435 2999 c-4 -6 -5 -12 -2 -15 2 -3 7 2 10 11 7 17 1 20 -8 4z"/>
<path d="M3164 2991 c3 -4 26 -14 51 -21 24 -7 42 -16 40 -20 -3 -5 5 -6 16
-3 17 5 7 11 -42 29 -74 27 -72 27 -65 15z"/>
<path d="M4790 2990 c-8 -5 -10 -10 -5 -10 6 0 17 5 25 10 8 5 11 10 5 10 -5
0 -17 -5 -25 -10z"/>
<path d="M4410 2970 c-8 -5 -10 -10 -5 -10 6 0 17 5 25 10 8 5 11 10 5 10 -5
0 -17 -5 -25 -10z"/>
<path d="M5331 2964 c0 -11 3 -14 6 -6 3 7 2 16 -1 19 -3 4 -6 -2 -5 -13z"/>
<path d="M3060 2951 c36 -20 50 -19 50 2 0 9 -2 9 -8 0 -6 -10 -12 -10 -28 2
-10 8 -26 14 -34 14 -8 0 1 -8 20 -18z"/>
<path d="M3923 2955 c0 -8 4 -12 9 -9 5 3 6 10 3 15 -9 13 -12 11 -12 -6z"/>
<path d="M4735 2956 c-11 -7 -38 -19 -60 -26 -22 -7 -44 -16 -49 -21 -14 -13
-7 -11 53 12 54 20 104 49 85 49 -5 0 -18 -6 -29 -14z"/>
<path d="M5405 2937 c-6 -29 -8 -30 -16 -12 -7 15 -7 11 -3 -14 5 -26 3 -32
-7 -26 -9 6 -11 3 -6 -9 4 -10 2 -27 -4 -39 -6 -12 -7 -18 -1 -12 16 16 60
135 52 140 -4 3 -11 -10 -15 -28z"/>
<path d="M3160 2950 c8 -5 20 -10 25 -10 6 0 3 5 -5 10 -8 5 -19 10 -25 10 -5
0 -3 -5 5 -10z"/>
<path d="M3875 2949 c-4 -6 -5 -12 -2 -15 2 -3 7 2 10 11 7 17 1 20 -8 4z"/>
<path d="M3308 2943 c7 -3 16 -2 19 1 4 3 -2 6 -13 5 -11 0 -14 -3 -6 -6z"/>
<path d="M4560 2946 c0 -2 7 -7 16 -10 8 -3 12 -2 9 4 -6 10 -25 14 -25 6z"/>
<path d="M4635 2940 c-3 -5 -1 -10 4 -10 6 0 11 5 11 10 0 6 -2 10 -4 10 -3 0
-8 -4 -11 -10z"/>
<path d="M3116 2932 c-2 -4 9 -15 25 -24 35 -21 37 -18 4 10 -13 12 -26 18
-29 14z"/>
<path d="M3891 2924 c0 -11 3 -14 6 -6 3 7 2 16 -1 19 -3 4 -6 -2 -5 -13z"/>
<path d="M3960 2929 c0 -5 5 -7 10 -4 6 3 10 8 10 11 0 2 -4 4 -10 4 -5 0 -10
-5 -10 -11z"/>
<path d="M4295 2930 c-25 -11 1 -11 35 0 20 6 21 8 5 8 -11 0 -29 -3 -40 -8z"/>
<path d="M3289 2921 c11 -7 11 -9 0 -14 -8 -3 -9 -6 -3 -6 6 -1 17 6 24 14 10
13 9 15 -11 15 -17 0 -20 -3 -10 -9z"/>
<path d="M3388 2923 c7 -3 16 -2 19 1 4 3 -2 6 -13 5 -11 0 -14 -3 -6 -6z"/>
<path d="M3428 2913 c7 -3 16 -2 19 1 4 3 -2 6 -13 5 -11 0 -14 -3 -6 -6z"/>
<path d="M4238 2913 c6 -2 18 -2 25 0 6 3 1 5 -13 5 -14 0 -19 -2 -12 -5z"/>
<path d="M3348 2903 c6 -2 18 -2 25 0 6 3 1 5 -13 5 -14 0 -19 -2 -12 -5z"/>
<path d="M3934 2894 c-18 -14 -18 -15 4 -4 12 6 22 13 22 15 0 8 -5 6 -26 -11z"/>
<path d="M5300 2858 c-7 -30 -10 -63 -7 -73 3 -14 5 -11 6 10 1 17 6 47 12 68
6 22 8 41 6 44 -3 2 -11 -20 -17 -49z"/>
<path d="M4580 2890 c-8 -5 -10 -10 -5 -10 6 0 17 5 25 10 8 5 11 10 5 10 -5
0 -17 -5 -25 -10z"/>
<path d="M3515 2880 c-3 -6 1 -7 9 -4 18 7 21 14 7 14 -6 0 -13 -4 -16 -10z"/>
<path d="M4228 2883 c7 -3 16 -2 19 1 4 3 -2 6 -13 5 -11 0 -14 -3 -6 -6z"/>
<path d="M3235 2867 c32 -15 102 -31 93 -21 -4 3 -21 10 -40 14 -85 22 -85 22
-53 7z"/>
<path d="M3350 2860 c-8 -5 -10 -10 -5 -10 6 0 17 5 25 10 8 5 11 10 5 10 -5
0 -17 -5 -25 -10z"/>
<path d="M4392 2851 c-11 -7 -11 -9 0 -14 9 -3 15 1 15 9 0 8 -1 14 -1 14 -1
0 -7 -4 -14 -9z"/>
<path d="M4290 2820 c-18 -12 -2 -12 25 0 13 6 15 9 5 9 -8 0 -22 -4 -30 -9z"/>
<path d="M5326 2797 c3 -10 9 -15 12 -12 3 3 0 11 -7 18 -10 9 -11 8 -5 -6z"/>
<path d="M3548 2793 c6 -2 18 -2 25 0 6 3 1 5 -13 5 -14 0 -19 -2 -12 -5z"/>
<path d="M3615 2790 c-3 -5 1 -10 9 -10 9 0 16 5 16 10 0 6 -4 10 -9 10 -6 0
-13 -4 -16 -10z"/>
<path d="M3810 2796 c0 -2 7 -7 16 -10 8 -3 12 -2 9 4 -6 10 -25 14 -25 6z"/>
<path d="M4158 2793 c7 -3 16 -2 19 1 4 3 -2 6 -13 5 -11 0 -14 -3 -6 -6z"/>
<path d="M3694 2778 c-3 -4 23 -7 58 -7 66 1 62 6 -10 11 -24 2 -46 0 -48 -4z"/>
<path d="M3876 2773 c-6 -14 -5 -15 5 -6 7 7 10 15 7 18 -3 3 -9 -2 -12 -12z"/>
<path d="M4048 2783 c6 -2 18 -2 25 0 6 3 1 5 -13 5 -14 0 -19 -2 -12 -5z"/>
<path d="M4098 2783 c7 -3 16 -2 19 1 4 3 -2 6 -13 5 -11 0 -14 -3 -6 -6z"/>
<path d="M3900 2772 c0 -4 21 -6 48 -4 75 5 82 10 15 11 -35 0 -63 -2 -63 -7z"/>
<path d="M3821 2744 c0 -11 3 -14 6 -6 3 7 2 16 -1 19 -3 4 -6 -2 -5 -13z"/>
<path d="M5318 2732 c-3 -10 0 -19 6 -19 7 0 12 9 12 19 0 10 -3 18 -7 18 -4
0 -9 -8 -11 -18z"/>
<path d="M3811 2704 c0 -11 3 -14 6 -6 3 7 2 16 -1 19 -3 4 -6 -2 -5 -13z"/>
<path d="M3872 2700 c0 -14 2 -19 5 -12 2 6 2 18 0 25 -3 6 -5 1 -5 -13z"/>
<path d="M5301 2634 c0 -11 3 -14 6 -6 3 7 2 16 -1 19 -3 4 -6 -2 -5 -13z"/>
<path d="M5262 2615 c0 -16 2 -22 5 -12 2 9 2 23 0 30 -3 6 -5 -1 -5 -18z"/>
<path d="M3791 2604 c0 -11 3 -14 6 -6 3 7 2 16 -1 19 -3 4 -6 -2 -5 -13z"/>
<path d="M5285 2580 c-4 -17 -5 -34 -2 -36 2 -3 7 10 11 27 8 42 0 50 -9 9z"/>
<path d="M3823 2555 c-3 -9 -3 -18 -1 -21 3 -3 8 4 11 16 6 23 -1 27 -10 5z"/>
<path d="M3780 2523 c0 -22 2 -25 10 -13 13 20 13 40 0 40 -5 0 -10 -12 -10
-27z"/>
<path d="M5267 2523 c-4 -3 -7 -18 -6 -32 1 -26 1 -25 10 3 9 31 7 41 -4 29z"/>
<path d="M3811 2504 c0 -11 3 -14 6 -6 3 7 2 16 -1 19 -3 4 -6 -2 -5 -13z"/>
<path d="M3794 2470 c0 -13 4 -16 10 -10 7 7 7 13 0 20 -6 6 -10 3 -10 -10z"/>
<path d="M5246 2445 c-3 -9 -6 -26 -5 -38 1 -16 4 -12 10 12 10 34 6 55 -5 26z"/>
</g>
</svg>
